<?xml version="1.0" encoding="UTF-8"?>
<!DOCTYPE svg PUBLIC "-//W3C//DTD SVG 1.1//EN" "http://www.w3.org/Graphics/SVG/1.1/DTD/svg11.dtd">
<svg xmlns="http://www.w3.org/2000/svg" version="1.1" width="64px" height="64px" style="shape-rendering:geometricPrecision; text-rendering:geometricPrecision; image-rendering:optimizeQuality; fill-rule:evenodd; clip-rule:evenodd" xmlns:xlink="http://www.w3.org/1999/xlink">
<g><path style="opacity:1" fill="#3560ea" d="M 30.5,11.5 C 28.6921,12.9179 28.0254,14.9179 28.5,17.5C 26.1667,17.5 23.8333,17.5 21.5,17.5C 21.5,16.8333 21.5,16.1667 21.5,15.5C 22.3213,12.3586 22.8213,9.02523 23,5.5C 25.3806,4.565 27.8806,4.23166 30.5,4.5C 30.5,6.83333 30.5,9.16667 30.5,11.5 Z"/></g>
<g><path style="opacity:0.584" fill="#1f1c15" d="M 53.5,26.5 C 53.6716,27.4916 53.3382,28.1583 52.5,28.5C 52.67,27.1779 52.3366,26.0113 51.5,25C 47.9748,24.8213 44.6414,24.3213 41.5,23.5C 45.8333,23.5 50.1667,23.5 54.5,23.5C 54.5,21.5 54.5,19.5 54.5,17.5C 53.5,17.5 52.5,17.5 51.5,17.5C 50.8333,4.16667 50.1667,4.16667 49.5,17.5C 48.5,17.5 47.5,17.5 46.5,17.5C 45.8333,4.16667 45.1667,4.16667 44.5,17.5C 43.5,17.5 42.5,17.5 41.5,17.5C 44.2624,14.923 43.7624,12.923 40,11.5C 39.8138,14.0356 39.3138,16.369 38.5,18.5C 38.7678,16.901 38.4345,15.5676 37.5,14.5C 36.299,10.6014 35.299,6.60138 34.5,2.5C 33.5159,5.42814 33.1826,8.42814 33.5,11.5C 32.5,11.5 31.5,11.5 30.5,11.5C 30.5,9.16667 30.5,6.83333 30.5,4.5C 27.8806,4.23166 25.3806,4.565 23,5.5C 22.8213,9.02523 22.3213,12.3586 21.5,15.5C 21.5,13.8333 21.5,12.1667 21.5,10.5C 21.5,8.16667 21.5,5.83333 21.5,3.5C 24.8333,3.5 28.1667,3.5 31.5,3.5C 31.3398,5.19919 31.5065,6.86586 32,8.5C 32.4966,6.19018 32.6633,3.85684 32.5,1.5C 33.8333,1.5 35.1667,1.5 36.5,1.5C 36.5,4.16667 36.5,6.83333 36.5,9.5C 38.8268,9.66462 40.9935,10.3313 43,11.5C 43.4935,9.86586 43.6602,8.19919 43.5,6.5C 44.8333,6.5 46.1667,6.5 47.5,6.5C 47.8333,18.5 48.1667,18.5 48.5,6.5C 49.8333,6.5 51.1667,6.5 52.5,6.5C 52.5,9.83333 52.5,13.1667 52.5,16.5C 53.5,16.5 54.5,16.5 55.5,16.5C 55.7681,20.083 55.1014,23.4164 53.5,26.5 Z"/></g>
<g><path style="opacity:1" fill="#334276" d="M 37.5,14.5 C 38.4345,15.5676 38.7678,16.901 38.5,18.5C 32.642,18.8222 26.9753,18.4889 21.5,17.5C 23.8333,17.5 26.1667,17.5 28.5,17.5C 28.0254,14.9179 28.6921,12.9179 30.5,11.5C 31.5,11.5 32.5,11.5 33.5,11.5C 33.1826,8.42814 33.5159,5.42814 34.5,2.5C 35.299,6.60138 36.299,10.6014 37.5,14.5 Z"/></g>
<g><path style="opacity:1" fill="#82a0fe" d="M 37.5,14.5 C 37.5,15.5 37.5,16.5 37.5,17.5C 35.1667,17.5 32.8333,17.5 30.5,17.5C 30.5,15.8333 30.5,14.1667 30.5,12.5C 32.7373,13.449 35.0706,14.1156 37.5,14.5 Z"/></g>
<g><path style="opacity:1" fill="#334271" d="M 41.5,23.5 C 41.5,21.5 41.5,19.5 41.5,17.5C 42.5,17.5 43.5,17.5 44.5,17.5C 45.1667,4.16667 45.8333,4.16667 46.5,17.5C 47.5,17.5 48.5,17.5 49.5,17.5C 50.1667,4.16667 50.8333,4.16667 51.5,17.5C 52.5,17.5 53.5,17.5 54.5,17.5C 54.5,19.5 54.5,21.5 54.5,23.5C 50.1667,23.5 45.8333,23.5 41.5,23.5 Z"/></g>
<g><path style="opacity:1" fill="#685b2b" d="M 21.5,10.5 C 21.5,12.1667 21.5,13.8333 21.5,15.5C 21.5,16.1667 21.5,16.8333 21.5,17.5C 26.9753,18.4889 32.642,18.8222 38.5,18.5C 32.69,19.4896 26.69,19.8229 20.5,19.5C 20.6621,17.4727 20.4955,15.4727 20,13.5C 19.3292,14.2524 18.4959,14.5858 17.5,14.5C 17.1667,14.5 16.8333,14.5 16.5,14.5C 17.9448,12.9373 19.6115,11.604 21.5,10.5 Z"/></g>
<g><path style="opacity:1" fill="#7f9cf8" d="M 42.5,18.5 C 46.0044,21.0944 49.5044,21.0944 53,18.5C 53.49,19.7932 53.6567,21.1266 53.5,22.5C 49.8333,22.5 46.1667,22.5 42.5,22.5C 42.5,21.1667 42.5,19.8333 42.5,18.5 Z"/></g>
<g><path style="opacity:1" fill="#2e3f78" d="M 16.5,18.5 C 16.5,23.1667 16.5,27.8333 16.5,32.5C 14.5,32.5 12.5,32.5 10.5,32.5C 8.83333,32.5 7.16667,32.5 5.5,32.5C 5.5,29.8333 5.5,27.1667 5.5,24.5C 7.5,24.5 9.5,24.5 11.5,24.5C 11.2924,22.0799 11.6258,19.7466 12.5,17.5C 13,17.1667 13.5,16.8333 14,16.5C 15.0111,17.0556 15.8444,17.7222 16.5,18.5 Z"/></g>
<g><path style="opacity:1" fill="#3663f0" d="M 14.5,19.5 C 15.6453,23.3112 15.8119,27.3112 15,31.5C 13.9899,27.3755 13.8233,23.3755 14.5,19.5 Z"/></g>
<g><path style="opacity:1" fill="#6b5e2c" d="M 53.5,26.5 C 54.4794,29.6248 54.8128,32.9581 54.5,36.5C 53.7784,36.0825 53.2784,35.4158 53,34.5C 52.6667,34.8333 52.3333,35.1667 52,35.5C 51.5045,33.5273 51.3379,31.5273 51.5,29.5C 52.1667,29.5 52.5,29.1667 52.5,28.5C 53.3382,28.1583 53.6716,27.4916 53.5,26.5 Z"/></g>
<g><path style="opacity:1" fill="#f0d35f" d="M 41.5,17.5 C 41.5,19.5 41.5,21.5 41.5,23.5C 44.6414,24.3213 47.9748,24.8213 51.5,25C 52.3366,26.0113 52.67,27.1779 52.5,28.5C 52.5,29.1667 52.1667,29.5 51.5,29.5C 51.719,28.325 51.3857,27.325 50.5,26.5C 49.8333,29.8333 49.1667,33.1667 48.5,36.5C 45.4693,37.3665 42.8027,38.8665 40.5,41C 43.2318,41.1538 45.8985,40.6538 48.5,39.5C 49.4287,40.6888 49.762,42.0222 49.5,43.5C 47.5897,47.0681 44.5897,49.0681 40.5,49.5C 38.7211,47.6565 36.3878,46.9898 33.5,47.5C 33.5,49.1667 33.5,50.8333 33.5,52.5C 32.391,52.4431 31.391,52.1098 30.5,51.5C 30.4606,50.4168 30.1272,49.4168 29.5,48.5C 27.2573,47.5258 24.924,47.1924 22.5,47.5C 22.5,48.5 22.5,49.5 22.5,50.5C 20.6565,48.7211 19.9898,46.3878 20.5,43.5C 21.4387,42.6726 21.1054,42.0059 19.5,41.5C 19.1667,40.5 18.5,39.8333 17.5,39.5C 15.8839,38.0108 13.8839,37.0108 11.5,36.5C 10.7542,35.2638 10.4208,33.9305 10.5,32.5C 12.5,32.5 14.5,32.5 16.5,32.5C 16.5,27.8333 16.5,23.1667 16.5,18.5C 16.4326,17.0413 16.7659,15.7079 17.5,14.5C 18.4959,14.5858 19.3292,14.2524 20,13.5C 20.4955,15.4727 20.6621,17.4727 20.5,19.5C 26.69,19.8229 32.69,19.4896 38.5,18.5C 39.3138,16.369 39.8138,14.0356 40,11.5C 43.7624,12.923 44.2624,14.923 41.5,17.5 Z"/></g>
<g><path style="opacity:1" fill="#574413" d="M 30.5,20.5 C 32.1765,21.1834 32.8432,22.5168 32.5,24.5C 36.5,24.5 38.5,26.5 38.5,30.5C 47.8333,31.1667 47.8333,31.8333 38.5,32.5C 38.5,36.5 36.5,38.5 32.5,38.5C 31.8333,43.8333 31.1667,43.8333 30.5,38.5C 29.1779,38.67 28.0113,38.3366 27,37.5C 23.5238,40.1859 23.0238,39.8525 25.5,36.5C 24.7542,35.2638 24.4208,33.9305 24.5,32.5C 16.5,31.8333 16.5,31.1667 24.5,30.5C 24.5,26.5 26.5,24.5 30.5,24.5C 30.5,23.1667 30.5,21.8333 30.5,20.5 Z"/></g>
<g><path style="opacity:1" fill="#f9db62" d="M 28.5,25.5 C 37.1709,25.1785 39.5042,28.8452 35.5,36.5C 27.8776,39.0416 24.7109,36.3749 26,28.5C 26.6979,27.3094 27.5313,26.3094 28.5,25.5 Z"/></g>
<g><path style="opacity:0.929" fill="#191923" d="M 51.5,29.5 C 51.3379,31.5273 51.5045,33.5273 52,35.5C 52.3333,35.1667 52.6667,34.8333 53,34.5C 53.2784,35.4158 53.7784,36.0825 54.5,36.5C 64.1289,41.692 63.7956,43.0254 53.5,40.5C 52.5052,45.7921 52.1718,51.1254 52.5,56.5C 51.1779,56.67 50.0113,56.3366 49,55.5C 48.3658,52.4453 48.5325,49.4453 49.5,46.5C 49.5,45.5 49.5,44.5 49.5,43.5C 49.762,42.0222 49.4287,40.6888 48.5,39.5C 45.8985,40.6538 43.2318,41.1538 40.5,41C 42.8027,38.8665 45.4693,37.3665 48.5,36.5C 49.1667,33.1667 49.8333,29.8333 50.5,26.5C 51.3857,27.325 51.719,28.325 51.5,29.5 Z"/></g>
<g><path style="opacity:1" fill="#5c7adc" d="M 17.5,39.5 C 18.5,39.8333 19.1667,40.5 19.5,41.5C 14.6124,41.7807 9.61237,41.9474 4.5,42C 8.15788,38.2583 12.4912,37.425 17.5,39.5 Z"/></g>
<g><path style="opacity:0.532" fill="#111118" d="M 16.5,14.5 C 16.8333,14.5 17.1667,14.5 17.5,14.5C 16.7659,15.7079 16.4326,17.0413 16.5,18.5C 15.8444,17.7222 15.0111,17.0556 14,16.5C 13.5,16.8333 13,17.1667 12.5,17.5C 11.6258,19.7466 11.2924,22.0799 11.5,24.5C 9.5,24.5 7.5,24.5 5.5,24.5C 5.5,27.1667 5.5,29.8333 5.5,32.5C 7.16667,32.5 8.83333,32.5 10.5,32.5C 10.4208,33.9305 10.7542,35.2638 11.5,36.5C 13.8839,37.0108 15.8839,38.0108 17.5,39.5C 12.4912,37.425 8.15788,38.2583 4.5,42C 9.61237,41.9474 14.6124,41.7807 19.5,41.5C 21.1054,42.0059 21.4387,42.6726 20.5,43.5C 19.8953,45.9741 18.8953,48.3074 17.5,50.5C 12.8333,50.5 8.16667,50.5 3.5,50.5C 0.824808,44.862 2.15814,40.5287 7.5,37.5C 8.42869,36.3112 8.76202,34.9778 8.5,33.5C 7.16667,33.5 5.83333,33.5 4.5,33.5C 4.5,30.1667 4.5,26.8333 4.5,23.5C 6.5,23.5 8.5,23.5 10.5,23.5C 10.3439,18.8029 11.5106,14.4695 14,10.5C 14.1216,12.437 14.955,13.7703 16.5,14.5 Z"/></g>
<g><path style="opacity:1" fill="#3866f9" d="M 4.5,43.5 C 6.83333,43.5 9.16667,43.5 11.5,43.5C 11.5,45.1667 11.5,46.8333 11.5,48.5C 9.16667,48.5 6.83333,48.5 4.5,48.5C 4.5,46.8333 4.5,45.1667 4.5,43.5 Z"/></g>
<g><path style="opacity:1" fill="#5b81f5" d="M 13.5,43.5 C 15.1667,43.5 16.8333,43.5 18.5,43.5C 18.6602,45.1992 18.4935,46.8659 18,48.5C 17.5172,47.552 17.3505,46.552 17.5,45.5C 16.5,45.5 15.5,45.5 14.5,45.5C 14.6495,46.552 14.4828,47.552 14,48.5C 13.5065,46.8659 13.3398,45.1992 13.5,43.5 Z"/></g>
<g><path style="opacity:0.894" fill="#564d23" d="M 20.5,43.5 C 19.9898,46.3878 20.6565,48.7211 22.5,50.5C 22.5,51.1667 22.5,51.8333 22.5,52.5C 20.8333,51.8333 19.1667,51.1667 17.5,50.5C 18.8953,48.3074 19.8953,45.9741 20.5,43.5 Z"/></g>
<g><path style="opacity:0.894" fill="#524923" d="M 49.5,43.5 C 49.5,44.5 49.5,45.5 49.5,46.5C 47.4451,48.5547 45.1117,50.2213 42.5,51.5C 41.8333,50.8333 41.1667,50.1667 40.5,49.5C 44.5897,49.0681 47.5897,47.0681 49.5,43.5 Z"/></g>
<g><path style="opacity:1" fill="#1d2036" d="M 40.5,49.5 C 41.1667,50.1667 41.8333,50.8333 42.5,51.5C 39.6543,53.6335 36.6543,53.9668 33.5,52.5C 33.5,50.8333 33.5,49.1667 33.5,47.5C 36.3878,46.9898 38.7211,47.6565 40.5,49.5 Z"/></g>
<g><path style="opacity:1" fill="#0d0c0a" d="M 30.5,51.5 C 31.391,52.1098 32.391,52.4431 33.5,52.5C 36.6543,53.9668 39.6543,53.6335 42.5,51.5C 43.1098,52.391 43.4431,53.391 43.5,54.5C 36.7173,55.1242 30.0506,54.9575 23.5,54C 26.3615,54.0302 28.6948,53.1969 30.5,51.5 Z"/></g>
<g><path style="opacity:0.827" fill="#1b1f3a" d="M 30.5,51.5 C 28.6948,53.1969 26.3615,54.0302 23.5,54C 30.0506,54.9575 36.7173,55.1242 43.5,54.5C 44.0431,54.56 44.3764,54.8933 44.5,55.5C 42.2338,56.3142 39.9005,56.8142 37.5,57C 36.3659,58.016 36.6992,58.6827 38.5,59C 36.5,59.6667 34.5,59.6667 32.5,59C 33.3081,58.6924 33.9747,58.1924 34.5,57.5C 31.3487,56.106 28.3487,56.2727 25.5,58C 27.9351,59.0034 27.6018,59.5034 24.5,59.5C 21.1919,59.6168 20.8586,58.9501 23.5,57.5C 22.6906,55.9291 22.3573,54.2624 22.5,52.5C 22.5,51.8333 22.5,51.1667 22.5,50.5C 22.5,49.5 22.5,48.5 22.5,47.5C 24.924,47.1924 27.2573,47.5258 29.5,48.5C 30.1272,49.4168 30.4606,50.4168 30.5,51.5 Z"/></g>
</svg>
