<?xml version="1.0" encoding="UTF-8"?>
<!DOCTYPE svg PUBLIC "-//W3C//DTD SVG 1.1//EN" "http://www.w3.org/Graphics/SVG/1.1/DTD/svg11.dtd">
<svg xmlns="http://www.w3.org/2000/svg" version="1.1" width="80px" height="80px" style="shape-rendering:geometricPrecision; text-rendering:geometricPrecision; image-rendering:optimizeQuality; fill-rule:evenodd; clip-rule:evenodd" xmlns:xlink="http://www.w3.org/1999/xlink">
<g><path style="opacity:0.878" fill="#88759d" d="M 62.5,28.5 C 64.5,28.5 66.5,28.5 68.5,28.5C 69.5817,29.5938 70.2483,30.9271 70.5,32.5C 69.9275,34.6873 69.9275,37.0206 70.5,39.5C 66.8183,39.6653 63.1516,39.4986 59.5,39C 60.1667,37.6667 60.8333,36.3333 61.5,35C 60.8333,34.6667 60.1667,34.3333 59.5,34C 60.2228,31.9817 61.2228,30.1484 62.5,28.5 Z"/></g>
<g><path style="opacity:0.836" fill="#88749e" d="M 10.5,28.5 C 12.5,28.5 14.5,28.5 16.5,28.5C 17.5817,29.5938 18.2483,30.9271 18.5,32.5C 17.9275,34.6873 17.9275,37.0206 18.5,39.5C 15.1667,39.5 11.8333,39.5 8.5,39.5C 9.07248,37.0206 9.07248,34.6873 8.5,32.5C 8.75166,30.9271 9.41833,29.5938 10.5,28.5 Z"/></g>
<g><path style="opacity:1" fill="#d5cdeb" d="M 11.5,29.5 C 14.2776,29.0217 16.2776,30.0217 17.5,32.5C 14.8333,33.8333 12.1667,33.8333 9.5,32.5C 10.1925,31.4822 10.8592,30.4822 11.5,29.5 Z"/></g>
<g><path style="opacity:0.998" fill="#d4ccea" d="M 63.5,29.5 C 66.2776,29.0217 68.2776,30.0217 69.5,32.5C 66.8333,33.8333 64.1667,33.8333 61.5,32.5C 62.1925,31.4822 62.8592,30.4822 63.5,29.5 Z"/></g>
<g><path style="opacity:1" fill="#d5cdeb" d="M 11.5,34.5 C 14.2776,34.0217 16.2776,35.0217 17.5,37.5C 14.8333,38.8333 12.1667,38.8333 9.5,37.5C 10.1925,36.4822 10.8592,35.4822 11.5,34.5 Z"/></g>
<g><path style="opacity:1" fill="#d5cdeb" d="M 63.5,34.5 C 66.2776,34.0217 68.2776,35.0217 69.5,37.5C 66.8333,38.8333 64.1667,38.8333 61.5,37.5C 62.1925,36.4822 62.8592,35.4822 63.5,34.5 Z"/></g>
<g><path style="opacity:0.775" fill="#a16b4d" d="M 68.5,28.5 C 66.5,28.5 64.5,28.5 62.5,28.5C 60.5,28.5 58.5,28.5 56.5,28.5C 56.334,33.8437 56.5006,39.1771 57,44.5C 60.4016,54.2049 63.9016,63.8715 67.5,73.5C 64.5541,74.6548 61.5541,74.8214 58.5,74C 52.1667,69.5 45.8333,65 39.5,60.5C 32.8151,64.5088 26.4818,69.0088 20.5,74C 17.4459,74.8214 14.4459,74.6548 11.5,73.5C 14.7651,64.8717 17.9317,56.205 21,47.5C 21.4995,41.1754 21.6662,34.8421 21.5,28.5C 19.8333,28.5 18.1667,28.5 16.5,28.5C 14.5,28.5 12.5,28.5 10.5,28.5C 7.98318,26.9229 7.98318,25.0896 10.5,23C 14.1516,22.5014 17.8183,22.3347 21.5,22.5C 21.1506,18.9356 21.8173,15.6022 23.5,12.5C 28.5596,9.30351 33.893,6.63684 39.5,4.5C 45.107,6.63684 50.4404,9.30351 55.5,12.5C 56.487,15.7683 56.8204,19.1016 56.5,22.5C 60.5138,22.3345 64.5138,22.5012 68.5,23C 71.0168,25.0896 71.0168,26.9229 68.5,28.5 Z M 50.5,51.5 C 51.1174,51.6107 51.6174,51.944 52,52.5C 52.9145,55.5449 53.5811,58.5449 54,61.5C 51.3313,59.6596 48.8313,57.6596 46.5,55.5C 47.8665,54.16 49.1999,52.8267 50.5,51.5 Z M 27.5,51.5 C 29.358,52.5955 31.0246,53.9288 32.5,55.5C 23.8601,64.2697 22.1934,62.9364 27.5,51.5 Z M 38.5,38.5 C 50.1723,42.1539 50.339,46.1539 39,50.5C 36.2048,48.8545 33.7048,46.8545 31.5,44.5C 33.6784,42.2553 36.0117,40.2553 38.5,38.5 Z M 47.5,31.5 C 48.5862,31.62 49.2528,32.2867 49.5,33.5C 48.6964,35.9573 47.6964,35.9573 46.5,33.5C 46.8627,32.8165 47.1961,32.1499 47.5,31.5 Z M 28.5,30.5 C 33.516,32.1805 33.6826,34.1805 29,36.5C 28.5045,34.5273 28.3379,32.5273 28.5,30.5 Z M 39.5,11.5 C 52.7869,16.9825 52.7869,22.6491 39.5,28.5C 34.8597,26.5114 31.1931,23.5114 28.5,19.5C 29.0096,17.9121 30.0096,16.7455 31.5,16C 34.3911,14.7258 37.0578,13.2258 39.5,11.5 Z"/></g>
<g><path style="opacity:1" fill="#f0c09d" d="M 38.5,5.5 C 44.1859,8.0942 49.6859,11.0942 55,14.5C 55.498,17.4816 55.6646,20.4816 55.5,23.5C 59.1817,23.3347 62.8484,23.5014 66.5,24C 67.91,24.3678 68.91,25.2011 69.5,26.5C 64.8804,27.4933 60.2137,27.8266 55.5,27.5C 55.3338,33.8421 55.5005,40.1754 56,46.5C 59.0371,55.402 62.2038,64.2353 65.5,73C 63.0288,73.7063 60.6954,73.373 58.5,72C 52.4187,66.8776 45.9187,62.3776 39,58.5C 32.5846,62.6278 26.418,67.1278 20.5,72C 18.3046,73.373 15.9712,73.7063 13.5,73C 16.8583,64.594 20.025,56.094 23,47.5C 23.4996,40.8417 23.6663,34.175 23.5,27.5C 18.8215,27.6658 14.1548,27.4992 9.5,27C 10.1667,26 10.8333,25 11.5,24C 15.4862,23.5012 19.4862,23.3345 23.5,23.5C 23.3354,20.4816 23.502,17.4816 24,14.5C 28.9813,11.6002 33.8146,8.60017 38.5,5.5 Z M 50.5,51.5 C 49.1999,52.8267 47.8665,54.16 46.5,55.5C 48.8313,57.6596 51.3313,59.6596 54,61.5C 53.5811,58.5449 52.9145,55.5449 52,52.5C 51.6174,51.944 51.1174,51.6107 50.5,51.5 Z M 27.5,51.5 C 22.1934,62.9364 23.8601,64.2697 32.5,55.5C 31.0246,53.9288 29.358,52.5955 27.5,51.5 Z M 38.5,38.5 C 36.0117,40.2553 33.6784,42.2553 31.5,44.5C 33.7048,46.8545 36.2048,48.8545 39,50.5C 50.339,46.1539 50.1723,42.1539 38.5,38.5 Z M 47.5,31.5 C 47.1961,32.1499 46.8627,32.8165 46.5,33.5C 47.6964,35.9573 48.6964,35.9573 49.5,33.5C 49.2528,32.2867 48.5862,31.62 47.5,31.5 Z M 28.5,30.5 C 28.3379,32.5273 28.5045,34.5273 29,36.5C 33.6826,34.1805 33.516,32.1805 28.5,30.5 Z M 39.5,11.5 C 37.0578,13.2258 34.3911,14.7258 31.5,16C 30.0096,16.7455 29.0096,17.9121 28.5,19.5C 31.1931,23.5114 34.8597,26.5114 39.5,28.5C 52.7869,22.6491 52.7869,16.9825 39.5,11.5 Z"/></g>
<g><path style="opacity:0.742" fill="#9a6f53" d="M 51.5,48.5 C 54.0638,53.5128 56.0638,58.8461 57.5,64.5C 57.1667,64.8333 56.8333,65.1667 56.5,65.5C 52.1426,62.1357 47.8093,58.8024 43.5,55.5C 46.1982,53.159 48.8648,50.8257 51.5,48.5 Z M 50.5,51.5 C 49.1999,52.8267 47.8665,54.16 46.5,55.5C 48.8313,57.6596 51.3313,59.6596 54,61.5C 53.5811,58.5449 52.9145,55.5449 52,52.5C 51.6174,51.944 51.1174,51.6107 50.5,51.5 Z"/></g>
<g><path style="opacity:0.725" fill="#9c6f51" d="M 26.5,49.5 C 29.9956,50.7484 32.9956,52.7484 35.5,55.5C 31.3857,59.0642 27.0524,62.3975 22.5,65.5C 22.731,60.0928 24.0643,54.7595 26.5,49.5 Z M 27.5,51.5 C 22.1934,62.9364 23.8601,64.2697 32.5,55.5C 31.0246,53.9288 29.358,52.5955 27.5,51.5 Z"/></g>
<g><path style="opacity:0.682" fill="#9b6e51" d="M 37.5,36.5 C 42.5546,37.8669 46.8879,40.5335 50.5,44.5C 47.3624,47.9014 43.6957,50.568 39.5,52.5C 35.3043,50.568 31.6376,47.9014 28.5,44.5C 31.5198,41.811 34.5198,39.1444 37.5,36.5 Z M 38.5,38.5 C 36.0117,40.2553 33.6784,42.2553 31.5,44.5C 33.7048,46.8545 36.2048,48.8545 39,50.5C 50.339,46.1539 50.1723,42.1539 38.5,38.5 Z"/></g>
<g><path style="opacity:0.862" fill="#9a6c51" d="M 50.5,27.5 C 51.6453,31.3112 51.8119,35.3112 51,39.5C 48.3313,37.6596 45.8313,35.6596 43.5,33.5C 45.8528,31.4773 48.1862,29.4773 50.5,27.5 Z M 47.5,31.5 C 47.1961,32.1499 46.8627,32.8165 46.5,33.5C 47.6964,35.9573 48.6964,35.9573 49.5,33.5C 49.2528,32.2867 48.5862,31.62 47.5,31.5 Z"/></g>
<g><path style="opacity:0.915" fill="#986e51" d="M 27.5,27.5 C 30.4549,29.1223 33.1215,31.1223 35.5,33.5C 33.1687,35.6596 30.6687,37.6596 28,39.5C 27.5012,35.5138 27.3345,31.5138 27.5,27.5 Z M 28.5,30.5 C 28.3379,32.5273 28.5045,34.5273 29,36.5C 33.6826,34.1805 33.516,32.1805 28.5,30.5 Z"/></g>
<g><path style="opacity:0.62" fill="#9b7052" d="M 38.5,9.5 C 55.4693,15.6582 55.8026,22.6582 39.5,30.5C 36.5381,28.6819 33.5381,26.8485 30.5,25C 27.4764,22.5254 26.8097,19.5254 28.5,16C 32.0689,14.0583 35.4022,11.8916 38.5,9.5 Z M 39.5,11.5 C 37.0578,13.2258 34.3911,14.7258 31.5,16C 30.0096,16.7455 29.0096,17.9121 28.5,19.5C 31.1931,23.5114 34.8597,26.5114 39.5,28.5C 52.7869,22.6491 52.7869,16.9825 39.5,11.5 Z"/></g>
</svg>
