<?xml version="1.0" encoding="UTF-8"?>
<!DOCTYPE svg PUBLIC "-//W3C//DTD SVG 1.1//EN" "http://www.w3.org/Graphics/SVG/1.1/DTD/svg11.dtd">
<svg xmlns="http://www.w3.org/2000/svg" version="1.1" width="64px" height="64px" style="shape-rendering:geometricPrecision; text-rendering:geometricPrecision; image-rendering:optimizeQuality; fill-rule:evenodd; clip-rule:evenodd" xmlns:xlink="http://www.w3.org/1999/xlink">
<g><path style="opacity:0.845" fill="#060402" d="M 63.5,45.5 C 63.5,48.1667 63.5,50.8333 63.5,53.5C 62.7109,53.7828 62.0442,54.2828 61.5,55C 50.1667,55.6667 38.8333,55.6667 27.5,55C 25.4963,52.1592 24.9963,48.9926 26,45.5C 28.2428,44.0292 30.7428,43.0292 33.5,42.5C 32.3717,41.7379 31.2051,41.0712 30,40.5C 29.8024,34.8213 29.8024,29.1547 30,23.5C 28.4223,18.3988 24.9223,16.0655 19.5,16.5C 18.3527,16.8178 17.5194,17.4844 17,18.5C 15.6206,28.4675 15.2872,38.4675 16,48.5C 18.6592,50.0602 19.8259,52.3935 19.5,55.5C 14.1563,55.666 8.82294,55.4994 3.5,55C 1.64977,54.3103 0.316435,53.1436 -0.5,51.5C -0.5,48.8333 -0.5,46.1667 -0.5,43.5C 1.2774,40.6109 3.94407,39.2776 7.5,39.5C 6.95928,29.8125 6.45928,20.1458 6,10.5C 7.29566,8.1854 9.29566,7.1854 12,7.5C 18.9711,9.15106 26.1377,9.98439 33.5,10C 35.6944,12.6947 37.6944,15.528 39.5,18.5C 42.0272,19.2136 44.5272,19.8803 47,20.5C 47.3324,23.5063 48.1657,26.3396 49.5,29C 53.0894,29.2069 56.5894,29.7069 60,30.5C 60.9967,33.8006 61.3301,37.134 61,40.5C 59.1746,41.1029 57.3413,41.7696 55.5,42.5C 58.4064,43.0806 61.073,44.0806 63.5,45.5 Z"/></g>
<g><path style="opacity:1" fill="#7c6130" d="M 14.5,15.5 C 14.1667,15.5 13.8333,15.5 13.5,15.5C 14.8598,13.1985 14.1932,11.5318 11.5,10.5C 8.80683,11.5318 8.14016,13.1985 9.5,15.5C 8.83333,15.5 8.5,15.8333 8.5,16.5C 6.66761,13.0463 7.66761,10.713 11.5,9.5C 15.1943,10.361 16.1943,12.361 14.5,15.5 Z"/></g>
<g><path style="opacity:1" fill="#140f07" d="M 13.5,15.5 C 12.1667,16.8333 10.8333,16.8333 9.5,15.5C 8.14016,13.1985 8.80683,11.5318 11.5,10.5C 14.1932,11.5318 14.8598,13.1985 13.5,15.5 Z"/></g>
<g><path style="opacity:1" fill="#e7b557" d="M 16.5,11.5 C 21.5111,11.3341 26.5111,11.5007 31.5,12C 33.5299,13.8962 35.1966,16.0629 36.5,18.5C 35.0095,19.2436 33.5095,19.9103 32,20.5C 30.9542,18.9095 29.7875,17.4095 28.5,16C 24.853,15.2255 21.1864,14.5588 17.5,14C 16.7476,13.3292 16.4142,12.4959 16.5,11.5 Z"/></g>
<g><path style="opacity:1" fill="#b0b0b0" d="M 10.5,12.5 C 12.337,12.6395 12.6704,13.3061 11.5,14.5C 10.7025,14.0431 10.3691,13.3764 10.5,12.5 Z"/></g>
<g><path style="opacity:1" fill="#f0bc5b" d="M 9.5,15.5 C 10.8333,16.8333 12.1667,16.8333 13.5,15.5C 13.8333,15.5 14.1667,15.5 14.5,15.5C 12.9167,38.6138 10.9167,38.9472 8.5,16.5C 8.5,15.8333 8.83333,15.5 9.5,15.5 Z"/></g>
<g><path style="opacity:1" fill="#0e0c07" d="M 43.5,27.5 C 42.3303,25.7215 40.6636,24.7215 38.5,24.5C 37.5041,24.4142 36.6708,24.7476 36,25.5C 35.5026,28.146 35.3359,30.8127 35.5,33.5C 38.1667,33.5 40.8333,33.5 43.5,33.5C 43.5,32.1667 43.5,30.8333 43.5,29.5C 44.7384,31.2143 45.405,33.2143 45.5,35.5C 42.8333,35.5 40.1667,35.5 37.5,35.5C 36.1667,35.5 34.8333,35.5 33.5,35.5C 33.5,33.5 33.5,31.5 33.5,29.5C 34.4682,27.3926 34.8016,25.0593 34.5,22.5C 37.5,22.5 40.5,22.5 43.5,22.5C 43.5,24.1667 43.5,25.8333 43.5,27.5 Z"/></g>
<g><path style="opacity:1" fill="#74a7b7" d="M 38.5,24.5 C 38.3379,26.5273 38.5045,28.5273 39,30.5C 40.816,31.7432 42.316,31.4099 43.5,29.5C 43.5,30.8333 43.5,32.1667 43.5,33.5C 40.8333,33.5 38.1667,33.5 35.5,33.5C 35.3359,30.8127 35.5026,28.146 36,25.5C 36.6708,24.7476 37.5041,24.4142 38.5,24.5 Z"/></g>
<g><path style="opacity:1" fill="#b3d4e2" d="M 38.5,24.5 C 40.6636,24.7215 42.3303,25.7215 43.5,27.5C 43.5,28.1667 43.5,28.8333 43.5,29.5C 42.316,31.4099 40.816,31.7432 39,30.5C 38.5045,28.5273 38.3379,26.5273 38.5,24.5 Z"/></g>
<g><path style="opacity:1" fill="#eda63e" d="M 32.5,28.5 C 33.1667,28.5 33.5,28.8333 33.5,29.5C 33.5,31.5 33.5,33.5 33.5,35.5C 34.8333,35.5 36.1667,35.5 37.5,35.5C 37.9175,36.2216 38.5842,36.7216 39.5,37C 45.8246,37.4995 52.1579,37.6662 58.5,37.5C 49.8955,39.4711 40.8955,40.1377 31.5,39.5C 31.423,35.7852 31.7564,32.1185 32.5,28.5 Z"/></g>
<g><path style="opacity:1" fill="#ecbb5f" d="M 58.5,37.5 C 52.1579,37.6662 45.8246,37.4995 39.5,37C 38.5842,36.7216 37.9175,36.2216 37.5,35.5C 40.1667,35.5 42.8333,35.5 45.5,35.5C 45.405,33.2143 44.7384,31.2143 43.5,29.5C 43.5,28.8333 43.5,28.1667 43.5,27.5C 43.5,25.8333 43.5,24.1667 43.5,22.5C 40.5,22.5 37.5,22.5 34.5,22.5C 34.8016,25.0593 34.4682,27.3926 33.5,29.5C 33.5,28.8333 33.1667,28.5 32.5,28.5C 32.2436,26.2075 32.5769,24.0408 33.5,22C 37.1667,21.3333 40.8333,21.3333 44.5,22C 45.5604,24.7367 46.3937,27.57 47,30.5C 50.4106,31.2931 53.9106,31.7931 57.5,32C 58.4061,33.6995 58.7394,35.5328 58.5,37.5 Z"/></g>
<g><path style="opacity:1" fill="#cbcbcb" d="M 10.5,35.5 C 12.9118,35.6941 13.9118,37.0274 13.5,39.5C 12.1667,39.5 10.8333,39.5 9.5,39.5C 9.43255,38.0413 9.76589,36.7079 10.5,35.5 Z"/></g>
<g><path style="opacity:1" fill="#6f7981" d="M 4.5,41.5 C 7.5,41.5 10.5,41.5 13.5,41.5C 13.3354,44.5184 13.502,47.5184 14,50.5C 15.2547,51.2106 16.4214,52.044 17.5,53C 13.1667,53.6667 8.83333,53.6667 4.5,53C 0.541922,49.0923 0.541922,45.2589 4.5,41.5 Z"/></g>
<g><path style="opacity:1" fill="#dddddd" d="M 35.5,41.5 C 41.5368,41.1707 47.5368,41.5041 53.5,42.5C 50.5,42.8333 47.5,43.1667 44.5,43.5C 41.0866,43.483 38.0866,42.8164 35.5,41.5 Z"/></g>
<g><path style="opacity:1" fill="#5d676f" d="M 29.5,45.5 C 39.5056,45.3335 49.5056,45.5002 59.5,46C 62.1667,48.3333 62.1667,50.6667 59.5,53C 49.5,53.6667 39.5,53.6667 29.5,53C 26.9142,50.506 26.9142,48.006 29.5,45.5 Z"/></g>
<g><path style="opacity:1" fill="#020203" d="M 50.5,51.5 C 51.7175,50.8386 53.0508,50.1719 54.5,49.5C 47.8333,48.1667 41.1667,48.1667 34.5,49.5C 39.3167,50.1669 43.9834,50.8335 48.5,51.5C 42.6812,52.6525 36.6812,52.8192 30.5,52C 27.8333,50.3333 27.8333,48.6667 30.5,47C 39.8333,46.3333 49.1667,46.3333 58.5,47C 61.1667,48.6667 61.1667,50.3333 58.5,52C 55.633,52.8007 52.9664,52.6341 50.5,51.5 Z"/></g>
<g><path style="opacity:1" fill="#dedede" d="M 50.5,51.5 C 49.8333,51.5 49.1667,51.5 48.5,51.5C 43.9834,50.8335 39.3167,50.1669 34.5,49.5C 41.1667,48.1667 47.8333,48.1667 54.5,49.5C 53.0508,50.1719 51.7175,50.8386 50.5,51.5 Z"/></g>
<g><path style="opacity:1" fill="#be9649" d="M 56.5,48.5 C 58.337,48.6395 58.6704,49.3061 57.5,50.5C 56.7025,50.0431 56.3691,49.3764 56.5,48.5 Z"/></g>
<g><path style="opacity:1" fill="#be9649" d="M 30.5,48.5 C 32.337,48.6395 32.6704,49.3061 31.5,50.5C 30.7025,50.0431 30.3691,49.3764 30.5,48.5 Z"/></g>
</svg>
