<?xml version="1.0" encoding="UTF-8"?>
<!DOCTYPE svg PUBLIC "-//W3C//DTD SVG 1.1//EN" "http://www.w3.org/Graphics/SVG/1.1/DTD/svg11.dtd">
<svg xmlns="http://www.w3.org/2000/svg" version="1.1" width="48px" height="48px" style="shape-rendering:geometricPrecision; text-rendering:geometricPrecision; image-rendering:optimizeQuality; fill-rule:evenodd; clip-rule:evenodd" xmlns:xlink="http://www.w3.org/1999/xlink">
<g><path style="opacity:0.966" fill="#fecc13" d="M 33.5,8.5 C 26.3372,12.2471 19.3372,16.2471 12.5,20.5C 10.0258,7.80337 15.3591,2.30337 28.5,4C 30.6605,4.9959 32.3272,6.4959 33.5,8.5 Z"/></g>
<g><path style="opacity:0.986" fill="#fec40e" d="M 33.5,8.5 C 34.9313,9.78041 35.5979,11.4471 35.5,13.5C 29.7444,16.0723 24.0778,18.9056 18.5,22C 16.5273,22.4955 14.5273,22.6621 12.5,22.5C 12.5,21.8333 12.5,21.1667 12.5,20.5C 19.3372,16.2471 26.3372,12.2471 33.5,8.5 Z"/></g>
<g><path style="opacity:0.972" fill="#febf09" d="M 35.5,13.5 C 35.5,15.5 35.5,17.5 35.5,19.5C 28.8333,22.1667 22.1667,24.8333 15.5,27.5C 14.2485,25.9991 13.2485,24.3325 12.5,22.5C 14.5273,22.6621 16.5273,22.4955 18.5,22C 24.0778,18.9056 29.7444,16.0723 35.5,13.5 Z"/></g>
<g><path style="opacity:0.934" fill="#feb805" d="M 35.5,19.5 C 33.061,23.9518 31.061,28.6185 29.5,33.5C 25.5,33.5 21.5,33.5 17.5,33.5C 17.0293,31.4214 16.3627,29.4214 15.5,27.5C 22.1667,24.8333 28.8333,22.1667 35.5,19.5 Z"/></g>
<g><path style="opacity:0.985" fill="#494e51" d="M 17.5,33.5 C 21.5,33.5 25.5,33.5 29.5,33.5C 30.6681,43.4874 26.8347,46.154 18,41.5C 17.5026,38.854 17.3359,36.1873 17.5,33.5 Z"/></g>
</svg>
