<?xml version="1.0" encoding="UTF-8"?>
<!DOCTYPE svg PUBLIC "-//W3C//DTD SVG 1.1//EN" "http://www.w3.org/Graphics/SVG/1.1/DTD/svg11.dtd">
<svg xmlns="http://www.w3.org/2000/svg" version="1.1" width="48px" height="48px" style="shape-rendering:geometricPrecision; text-rendering:geometricPrecision; image-rendering:optimizeQuality; fill-rule:evenodd; clip-rule:evenodd" xmlns:xlink="http://www.w3.org/1999/xlink">
<g><path style="opacity:0.927" fill="#546b75" d="M 16.5,4.5 C 16.5,5.5 16.5,6.5 16.5,7.5C 20.1693,6.69713 22.836,7.8638 24.5,11C 20.5,13.3333 20.5,15.6667 24.5,18C 22.609,20.8016 19.9423,21.9682 16.5,21.5C 16.5,22.8333 16.5,24.1667 16.5,25.5C 14.5,25.5 12.5,25.5 10.5,25.5C 10.5,24.1667 10.5,22.8333 10.5,21.5C 9.20895,21.2627 8.20895,21.596 7.5,22.5C 2.59114,21.3443 1.59114,18.6777 4.5,14.5C 1.91988,12.0444 1.91988,9.54444 4.5,7C 5.78387,6.31621 6.95054,6.48288 8,7.5C 10.1235,3.95994 12.9568,2.95994 16.5,4.5 Z"/></g>
<g><path style="opacity:0.97" fill="#ffb74d" d="M 21.5,3.5 C 27.3238,2.58843 32.4905,3.92176 37,7.5C 39.3154,13.5762 41.8154,19.5762 44.5,25.5C 44.2811,27.9153 42.9477,28.9153 40.5,28.5C 42.3548,36.5394 39.3548,40.2061 31.5,39.5C 31.5,40.8333 31.5,42.1667 31.5,43.5C 25.5,43.5 19.5,43.5 13.5,43.5C 13.3256,40.1262 12.8256,36.7928 12,33.5C 10.295,31.4234 9.12835,29.09 8.5,26.5C 21.1323,28.7035 26.9656,23.3701 26,10.5C 24.9879,7.7982 23.4879,5.46486 21.5,3.5 Z"/></g>
<g><path style="opacity:1" fill="#f8c77c" d="M 21.5,3.5 C 23.4879,5.46486 24.9879,7.7982 26,10.5C 26.9656,23.3701 21.1323,28.7035 8.5,26.5C 7.56552,25.4324 7.23219,24.099 7.5,22.5C 8.20895,21.596 9.20895,21.2627 10.5,21.5C 10.5,22.8333 10.5,24.1667 10.5,25.5C 12.5,25.5 14.5,25.5 16.5,25.5C 16.5,24.1667 16.5,22.8333 16.5,21.5C 19.9423,21.9682 22.609,20.8016 24.5,18C 20.5,15.6667 20.5,13.3333 24.5,11C 22.836,7.8638 20.1693,6.69713 16.5,7.5C 16.5,6.5 16.5,5.5 16.5,4.5C 18.0418,3.69929 19.7085,3.36596 21.5,3.5 Z"/></g>
<g><path style="opacity:1" fill="#eabf7d" d="M 11.5,11.5 C 16.1585,11.0146 17.4919,12.848 15.5,17C 10.7282,17.8104 9.39483,15.9771 11.5,11.5 Z"/></g>
</svg>
