<?xml version="1.0" encoding="UTF-8"?>
<!DOCTYPE svg PUBLIC "-//W3C//DTD SVG 1.1//EN" "http://www.w3.org/Graphics/SVG/1.1/DTD/svg11.dtd">
<svg xmlns="http://www.w3.org/2000/svg" version="1.1" width="64px" height="64px" style="shape-rendering:geometricPrecision; text-rendering:geometricPrecision; image-rendering:optimizeQuality; fill-rule:evenodd; clip-rule:evenodd" xmlns:xlink="http://www.w3.org/1999/xlink">
<g><path style="opacity:0.963" fill="#939899" d="M 57.5,10.5 C 53.5,10.5 49.5,10.5 45.5,10.5C 35.8333,10.5 26.1667,10.5 16.5,10.5C 15.8333,10.5 15.1667,10.5 14.5,10.5C 13.1667,10.5 11.8333,10.5 10.5,10.5C 10.5,7.83333 10.5,5.16667 10.5,2.5C 27.1667,2.5 43.8333,2.5 60.5,2.5C 60.5,5.16667 60.5,7.83333 60.5,10.5C 59.5,10.5 58.5,10.5 57.5,10.5 Z M 21.5,5.5 C 22.6009,4.40168 23.9343,4.23502 25.5,5C 24.3181,6.76827 22.9848,6.93493 21.5,5.5 Z M 33.5,5.5 C 34.6009,4.40168 35.9343,4.23502 37.5,5C 36.3181,6.76827 34.9848,6.93493 33.5,5.5 Z M 45.5,5.5 C 46.6009,4.40168 47.9343,4.23502 49.5,5C 48.3181,6.76827 46.9848,6.93493 45.5,5.5 Z M 16.5,6.5 C 17.7562,6.46141 18.7562,6.96141 19.5,8C 18.1667,8.66667 16.8333,8.66667 15.5,8C 16.056,7.61742 16.3893,7.11742 16.5,6.5 Z M 28.5,6.5 C 29.7562,6.46141 30.7562,6.96141 31.5,8C 30.1667,8.66667 28.8333,8.66667 27.5,8C 28.056,7.61742 28.3893,7.11742 28.5,6.5 Z M 40.5,6.5 C 41.7562,6.46141 42.7562,6.96141 43.5,8C 42.1667,8.66667 40.8333,8.66667 39.5,8C 40.056,7.61742 40.3893,7.11742 40.5,6.5 Z M 52.5,6.5 C 53.7562,6.46141 54.7562,6.96141 55.5,8C 54.1667,8.66667 52.8333,8.66667 51.5,8C 52.056,7.61742 52.3893,7.11742 52.5,6.5 Z"/></g>
<g><path style="opacity:0.892" fill="#f9df07" d="M 14.5,10.5 C 15.1667,10.5 15.8333,10.5 16.5,10.5C 16.9275,13.5641 17.5942,16.5641 18.5,19.5C 16.5,19.5 14.5,19.5 12.5,19.5C 12.5578,16.3356 13.2245,13.3356 14.5,10.5 Z"/></g>
<g><path style="opacity:1" fill="#fbbc04" d="M 45.5,10.5 C 49.5,10.5 53.5,10.5 57.5,10.5C 57.5,10.8333 57.5,11.1667 57.5,11.5C 51.1737,9.84111 48.1737,12.1744 48.5,18.5C 47.5,18.5 46.5,18.5 45.5,18.5C 45.5,15.8333 45.5,13.1667 45.5,10.5 Z"/></g>
<g><path style="opacity:1" fill="#f9e008" d="M 57.5,11.5 C 57.8016,14.0593 57.4682,16.3926 56.5,18.5C 55.8333,18.5 55.1667,18.5 54.5,18.5C 53.1667,18.5 51.8333,18.5 50.5,18.5C 49.8333,18.5 49.1667,18.5 48.5,18.5C 48.1737,12.1744 51.1737,9.84111 57.5,11.5 Z"/></g>
<g><path style="opacity:0.834" fill="#f9d807" d="M 37.5,17.5 C 33.1667,17.5 28.8333,17.5 24.5,17.5C 24.5,16.1667 24.5,14.8333 24.5,13.5C 29.1646,14.0569 33.4979,15.3902 37.5,17.5 Z"/></g>
<g><path style="opacity:0.993" fill="#e4962f" d="M 24.5,17.5 C 28.8333,17.5 33.1667,17.5 37.5,17.5C 38.8333,17.5 40.1667,17.5 41.5,17.5C 41.5,18.8333 41.5,20.1667 41.5,21.5C 40.2652,21.2786 39.2652,20.6119 38.5,19.5C 37.1667,22.1667 35.8333,22.1667 34.5,19.5C 33.1667,22.1667 31.8333,22.1667 30.5,19.5C 29.1667,22.1667 27.8333,22.1667 26.5,19.5C 25.1667,22.1667 23.8333,22.1667 22.5,19.5C 21.7348,20.6119 20.7348,21.2786 19.5,21.5C 19.5,20.1667 19.5,18.8333 19.5,17.5C 21.1667,17.5 22.8333,17.5 24.5,17.5 Z"/></g>
<g><path style="opacity:0.965" fill="#929899" d="M 48.5,18.5 C 49.1667,18.5 49.8333,18.5 50.5,18.5C 49.6157,24.1933 50.7824,25.1933 54,21.5C 54.4828,20.552 54.6495,19.552 54.5,18.5C 55.1667,18.5 55.8333,18.5 56.5,18.5C 56.5,29.8333 56.5,41.1667 56.5,52.5C 55.8333,52.5 55.1667,52.5 54.5,52.5C 54.2144,50.0673 53.5477,50.0673 52.5,52.5C 51.1667,52.5 49.8333,52.5 48.5,52.5C 48.5,41.1667 48.5,29.8333 48.5,18.5 Z M 50.5,18.5 C 51.8333,18.5 53.1667,18.5 54.5,18.5C 54.6495,19.552 54.4828,20.552 54,21.5C 50.7824,25.1933 49.6157,24.1933 50.5,18.5 Z M 53.5,26.5 C 54.5983,27.6009 54.765,28.9343 54,30.5C 52.2317,29.3181 52.0651,27.9848 53.5,26.5 Z M 50.5,32.5 C 52.8519,33.5426 53.0185,34.8759 51,36.5C 50.51,35.2068 50.3433,33.8734 50.5,32.5 Z M 53.5,38.5 C 54.5983,39.6009 54.765,40.9343 54,42.5C 52.2317,41.3181 52.0651,39.9848 53.5,38.5 Z M 50.5,44.5 C 52.8519,45.5426 53.0185,46.8759 51,48.5C 50.51,47.2068 50.3433,45.8734 50.5,44.5 Z M 54.5,52.5 C 53.8333,52.5 53.1667,52.5 52.5,52.5C 53.5477,50.0673 54.2144,50.0673 54.5,52.5 Z"/></g>
<g><path style="opacity:0.997" fill="#f8b711" d="M 19.5,21.5 C 20.7348,21.2786 21.7348,20.6119 22.5,19.5C 23.8333,22.1667 25.1667,22.1667 26.5,19.5C 27.8333,22.1667 29.1667,22.1667 30.5,19.5C 31.8333,22.1667 33.1667,22.1667 34.5,19.5C 35.8333,22.1667 37.1667,22.1667 38.5,19.5C 39.2652,20.6119 40.2652,21.2786 41.5,21.5C 40.8166,23.1765 39.4832,23.8432 37.5,23.5C 28.8333,23.5 20.1667,23.5 11.5,23.5C 9.5,23.5 7.5,23.5 5.5,23.5C 1.5,22.8333 1.5,22.1667 5.5,21.5C 5.5,20.1667 5.5,18.8333 5.5,17.5C 7.5,17.5 9.5,17.5 11.5,17.5C 11.5,18.8333 11.5,20.1667 11.5,21.5C 14.1667,21.5 16.8333,21.5 19.5,21.5 Z M 7.5,19.5 C 9.33702,19.6395 9.67036,20.3061 8.5,21.5C 7.70245,21.0431 7.36912,20.3764 7.5,19.5 Z"/></g>
<g><path style="opacity:1" fill="#929999" d="M 5.5,23.5 C 7.5,23.5 9.5,23.5 11.5,23.5C 11.5,24.5 11.5,25.5 11.5,26.5C 9.65649,28.2789 8.98983,30.6122 9.5,33.5C 8.16667,33.5 6.83333,33.5 5.5,33.5C 5.5,30.1667 5.5,26.8333 5.5,23.5 Z"/></g>
<g><path style="opacity:1" fill="#cfd8d9" d="M 11.5,23.5 C 20.1667,23.5 28.8333,23.5 37.5,23.5C 37.5,26.8333 37.5,30.1667 37.5,33.5C 36.1667,33.5 34.8333,33.5 33.5,33.5C 33.5,31.1667 33.5,28.8333 33.5,26.5C 29.5,26.5 25.5,26.5 21.5,26.5C 21.5,28.8333 21.5,31.1667 21.5,33.5C 20.1667,33.5 18.8333,33.5 17.5,33.5C 17.5,31.1667 17.5,28.8333 17.5,26.5C 15.5,26.5 13.5,26.5 11.5,26.5C 11.5,25.5 11.5,24.5 11.5,23.5 Z"/></g>
<g><path style="opacity:1" fill="#53ace4" d="M 33.5,33.5 C 29.5,33.5 25.5,33.5 21.5,33.5C 21.5,31.1667 21.5,28.8333 21.5,26.5C 25.5,26.5 29.5,26.5 33.5,26.5C 33.5,28.8333 33.5,31.1667 33.5,33.5 Z"/></g>
<g><path style="opacity:1" fill="#4592d3" d="M 11.5,26.5 C 13.5,26.5 15.5,26.5 17.5,26.5C 17.5,28.8333 17.5,31.1667 17.5,33.5C 14.8333,33.5 12.1667,33.5 9.5,33.5C 8.98983,30.6122 9.65649,28.2789 11.5,26.5 Z"/></g>
<g><path style="opacity:0.998" fill="#e5972f" d="M 5.5,33.5 C 6.83333,33.5 8.16667,33.5 9.5,33.5C 12.1667,33.5 14.8333,33.5 17.5,33.5C 18.8333,33.5 20.1667,33.5 21.5,33.5C 25.5,33.5 29.5,33.5 33.5,33.5C 34.8333,33.5 36.1667,33.5 37.5,33.5C 38.4511,34.9187 38.7845,36.5853 38.5,38.5C 37.8333,38.5 37.1667,38.5 36.5,38.5C 35.8333,34.5 35.1667,34.5 34.5,38.5C 33.8333,38.5 33.1667,38.5 32.5,38.5C 31.8333,34.5 31.1667,34.5 30.5,38.5C 29.8333,38.5 29.1667,38.5 28.5,38.5C 27.8333,34.5 27.1667,34.5 26.5,38.5C 25.8333,38.5 25.1667,38.5 24.5,38.5C 23.8333,34.5 23.1667,34.5 22.5,38.5C 21.8333,38.5 21.1667,38.5 20.5,38.5C 19.8333,34.5 19.1667,34.5 18.5,38.5C 17.8333,38.5 17.1667,38.5 16.5,38.5C 15.8333,34.5 15.1667,34.5 14.5,38.5C 13.8333,38.5 13.1667,38.5 12.5,38.5C 11.8333,34.5 11.1667,34.5 10.5,38.5C 9.83333,38.5 9.16667,38.5 8.5,38.5C 7.83333,34.5 7.16667,34.5 6.5,38.5C 5.26166,38.81 5.26166,39.31 6.5,40C 17.8284,40.4999 29.1618,40.6665 40.5,40.5C 40.1788,42.0481 39.1788,42.7148 37.5,42.5C 26.8333,42.5 16.1667,42.5 5.5,42.5C 4.5,42.5 3.5,42.5 2.5,42.5C 3.1811,39.3096 4.1811,36.3096 5.5,33.5 Z"/></g>
<g><path style="opacity:1" fill="#929999" d="M 8.5,38.5 C 7.83333,38.5 7.16667,38.5 6.5,38.5C 7.16667,34.5 7.83333,34.5 8.5,38.5 Z"/></g>
<g><path style="opacity:1" fill="#929999" d="M 12.5,38.5 C 11.8333,38.5 11.1667,38.5 10.5,38.5C 11.1667,34.5 11.8333,34.5 12.5,38.5 Z"/></g>
<g><path style="opacity:1" fill="#929999" d="M 16.5,38.5 C 15.8333,38.5 15.1667,38.5 14.5,38.5C 15.1667,34.5 15.8333,34.5 16.5,38.5 Z"/></g>
<g><path style="opacity:1" fill="#929999" d="M 20.5,38.5 C 19.8333,38.5 19.1667,38.5 18.5,38.5C 19.1667,34.5 19.8333,34.5 20.5,38.5 Z"/></g>
<g><path style="opacity:1" fill="#929999" d="M 24.5,38.5 C 23.8333,38.5 23.1667,38.5 22.5,38.5C 23.1667,34.5 23.8333,34.5 24.5,38.5 Z"/></g>
<g><path style="opacity:1" fill="#929999" d="M 28.5,38.5 C 27.8333,38.5 27.1667,38.5 26.5,38.5C 27.1667,34.5 27.8333,34.5 28.5,38.5 Z"/></g>
<g><path style="opacity:1" fill="#929999" d="M 32.5,38.5 C 31.8333,38.5 31.1667,38.5 30.5,38.5C 31.1667,34.5 31.8333,34.5 32.5,38.5 Z"/></g>
<g><path style="opacity:1" fill="#929999" d="M 36.5,38.5 C 35.8333,38.5 35.1667,38.5 34.5,38.5C 35.1667,34.5 35.8333,34.5 36.5,38.5 Z"/></g>
<g><path style="opacity:1" fill="#fbbb04" d="M 6.5,38.5 C 7.16667,38.5 7.83333,38.5 8.5,38.5C 9.16667,38.5 9.83333,38.5 10.5,38.5C 11.1667,38.5 11.8333,38.5 12.5,38.5C 13.1667,38.5 13.8333,38.5 14.5,38.5C 15.1667,38.5 15.8333,38.5 16.5,38.5C 17.1667,38.5 17.8333,38.5 18.5,38.5C 19.1667,38.5 19.8333,38.5 20.5,38.5C 21.1667,38.5 21.8333,38.5 22.5,38.5C 23.1667,38.5 23.8333,38.5 24.5,38.5C 25.1667,38.5 25.8333,38.5 26.5,38.5C 27.1667,38.5 27.8333,38.5 28.5,38.5C 29.1667,38.5 29.8333,38.5 30.5,38.5C 31.1667,38.5 31.8333,38.5 32.5,38.5C 33.1667,38.5 33.8333,38.5 34.5,38.5C 35.1667,38.5 35.8333,38.5 36.5,38.5C 37.1667,38.5 37.8333,38.5 38.5,38.5C 39.8333,38.5 40.5,39.1667 40.5,40.5C 29.1618,40.6665 17.8284,40.4999 6.5,40C 5.26166,39.31 5.26166,38.81 6.5,38.5 Z"/></g>
<g><path style="opacity:1" fill="#929999" d="M 5.5,42.5 C 16.1667,42.5 26.8333,42.5 37.5,42.5C 37.5,43.5 37.5,44.5 37.5,45.5C 28.8333,45.5 20.1667,45.5 11.5,45.5C 11.5,46.5 11.5,47.5 11.5,48.5C 9.57723,52.0293 8.91057,56.0293 9.5,60.5C 8.16667,60.5 6.83333,60.5 5.5,60.5C 5.5,54.5 5.5,48.5 5.5,42.5 Z"/></g>
<g><path style="opacity:1" fill="#cfd7d9" d="M 37.5,45.5 C 37.5,49.5 37.5,53.5 37.5,57.5C 30.8333,57.5 24.1667,57.5 17.5,57.5C 17.5,56.8333 17.5,56.1667 17.5,55.5C 17.5,54.8333 17.5,54.1667 17.5,53.5C 17.5,51.8333 17.5,50.1667 17.5,48.5C 15.5,48.5 13.5,48.5 11.5,48.5C 11.5,47.5 11.5,46.5 11.5,45.5C 20.1667,45.5 28.8333,45.5 37.5,45.5 Z"/></g>
<g><path style="opacity:1" fill="#52ace4" d="M 21.5,48.5 C 25.5,48.5 29.5,48.5 33.5,48.5C 33.5,51.1667 33.5,53.8333 33.5,56.5C 29.5,56.5 25.5,56.5 21.5,56.5C 21.5,53.8333 21.5,51.1667 21.5,48.5 Z"/></g>
<g><path style="opacity:1" fill="#f8b811" d="M 11.5,48.5 C 13.5,48.5 15.5,48.5 17.5,48.5C 17.5,50.1667 17.5,51.8333 17.5,53.5C 16.0779,53.2504 15.0779,52.417 14.5,51C 10.9887,50.8802 10.6553,52.2135 13.5,55C 14.7932,55.49 16.1266,55.6567 17.5,55.5C 17.5,56.1667 17.5,56.8333 17.5,57.5C 17.5,58.5 17.5,59.5 17.5,60.5C 14.8333,60.5 12.1667,60.5 9.5,60.5C 8.91057,56.0293 9.57723,52.0293 11.5,48.5 Z"/></g>
<g><path style="opacity:1" fill="#e6db0e" d="M 17.5,53.5 C 17.5,54.1667 17.5,54.8333 17.5,55.5C 16.1266,55.6567 14.7932,55.49 13.5,55C 10.6553,52.2135 10.9887,50.8802 14.5,51C 15.0779,52.417 16.0779,53.2504 17.5,53.5 Z"/></g>
<g><path style="opacity:1" fill="#f9e008" d="M 46.5,52.5 C 47.1667,52.5 47.8333,52.5 48.5,52.5C 49.8333,52.5 51.1667,52.5 52.5,52.5C 53.1667,52.5 53.8333,52.5 54.5,52.5C 55.1667,52.5 55.8333,52.5 56.5,52.5C 57.8333,52.5 59.1667,52.5 60.5,52.5C 60.5,54.1667 60.5,55.8333 60.5,57.5C 56.8183,57.6653 53.1516,57.4986 49.5,57C 47.8588,55.871 46.8588,54.371 46.5,52.5 Z"/></g>
<g><path style="opacity:1" fill="#fbbd04" d="M 46.5,52.5 C 46.8588,54.371 47.8588,55.871 49.5,57C 53.1516,57.4986 56.8183,57.6653 60.5,57.5C 60.5,58.5 60.5,59.5 60.5,60.5C 54.5,60.5 48.5,60.5 42.5,60.5C 41.7736,56.7396 43.1069,54.073 46.5,52.5 Z"/></g>
<g><path style="opacity:1" fill="#929999" d="M 17.5,57.5 C 24.1667,57.5 30.8333,57.5 37.5,57.5C 37.5,58.5 37.5,59.5 37.5,60.5C 30.8333,60.5 24.1667,60.5 17.5,60.5C 17.5,59.5 17.5,58.5 17.5,57.5 Z"/></g>
</svg>
