<?xml version="1.0" encoding="UTF-8"?>
<!DOCTYPE svg PUBLIC "-//W3C//DTD SVG 1.1//EN" "http://www.w3.org/Graphics/SVG/1.1/DTD/svg11.dtd">
<svg xmlns="http://www.w3.org/2000/svg" version="1.1" width="64px" height="64px" style="shape-rendering:geometricPrecision; text-rendering:geometricPrecision; image-rendering:optimizeQuality; fill-rule:evenodd; clip-rule:evenodd" xmlns:xlink="http://www.w3.org/1999/xlink">
<g><path style="opacity:0.894" fill="#070604" d="M 52.5,4.5 C 53.7498,4.57735 54.5831,5.24402 55,6.5C 55.8723,11.1947 56.8723,15.8614 58,20.5C 60.2645,21.9158 61.4312,23.9158 61.5,26.5C 49.6268,22.6946 42.9602,27.0279 41.5,39.5C 42.0463,41.1347 42.3796,42.8014 42.5,44.5C 45.6516,43.9586 48.1516,44.9586 50,47.5C 50.7835,50.7603 50.6168,53.9269 49.5,57C 53.5408,57.1735 57.5408,57.6735 61.5,58.5C 41.5,59.8333 21.5,59.8333 1.5,58.5C 4.10707,57.6816 6.77374,57.1816 9.5,57C 7.34749,54.8349 4.68082,54.0016 1.5,54.5C 0.899045,47.7113 1.56571,41.2113 3.5,35C 1.80784,33.5993 1.14118,31.7659 1.5,29.5C 3.5,29.5 5.5,29.5 7.5,29.5C 7.85882,31.7659 7.19216,33.5993 5.5,35C 6.79323,35.49 8.12656,35.6567 9.5,35.5C 10.0772,31.9202 9.07722,28.9202 6.5,26.5C 8.00638,25.2528 9.50638,25.2528 11,26.5C 11.498,29.4816 11.6646,32.4816 11.5,35.5C 12.8333,35.5 14.1667,35.5 15.5,35.5C 15.2232,30.7668 15.5565,26.1001 16.5,21.5C 16.8333,21.1667 17.1667,20.8333 17.5,20.5C 20.1667,23.1667 22.8333,23.1667 25.5,20.5C 29.8275,27.1511 32.1609,34.4845 32.5,42.5C 30.8333,42.5 29.1667,42.5 27.5,42.5C 27.281,43.675 27.6143,44.675 28.5,45.5C 30.0709,44.6906 31.7376,44.3573 33.5,44.5C 33.3339,38.8236 33.5006,33.1569 34,27.5C 38.1789,24.7433 42.1789,21.7433 46,18.5C 46.3333,15.8333 46.6667,13.1667 47,10.5C 48.7248,8.39054 50.5581,6.39054 52.5,4.5 Z M 27.5,52.5 C 30.7681,53.5295 33.7681,55.0295 36.5,57C 31.8333,57.6667 27.1667,57.6667 22.5,57C 24.2714,55.4756 25.9381,53.9756 27.5,52.5 Z"/></g>
<g><path style="opacity:1" fill="#767676" d="M 51.5,8.5 C 53.4518,13.5165 55.4518,18.6832 57.5,24C 55.5273,24.4955 53.5273,24.6621 51.5,24.5C 50.7976,21.4222 49.7976,18.4222 48.5,15.5C 48.9301,12.862 49.9301,10.5287 51.5,8.5 Z"/></g>
<g><path style="opacity:1" fill="#e7b92f" d="M 43.5,23.5 C 44.675,23.281 45.675,23.6143 46.5,24.5C 41.6339,27.0307 39.3005,31.0307 39.5,36.5C 38.1667,36.5 36.8333,36.5 35.5,36.5C 35.3367,34.1432 35.5034,31.8098 36,29.5C 38.6877,27.636 41.1877,25.636 43.5,23.5 Z"/></g>
<g><path style="opacity:1" fill="#fac933" d="M 17.5,24.5 C 20.5719,24.1826 23.5719,24.5159 26.5,25.5C 24.2573,26.4742 21.924,26.8076 19.5,26.5C 19.5,30.5 19.5,34.5 19.5,38.5C 23.226,38.1774 26.8927,38.5108 30.5,39.5C 24.1928,40.3306 17.8594,40.8306 11.5,41C 4.80032,49.4276 2.13365,48.261 3.5,37.5C 8.16667,37.5 12.8333,37.5 17.5,37.5C 17.5,33.1667 17.5,28.8333 17.5,24.5 Z"/></g>
<g><path style="opacity:1" fill="#4cbec2" d="M 21.5,28.5 C 23.5,28.5 25.5,28.5 27.5,28.5C 27.7563,30.9372 28.4229,33.2706 29.5,35.5C 26.9135,36.48 24.2469,36.8134 21.5,36.5C 21.5,33.8333 21.5,31.1667 21.5,28.5 Z"/></g>
<g><path style="opacity:1" fill="#000000" d="M 5.5,39.5 C 7.33702,39.6395 7.67036,40.3061 6.5,41.5C 5.70245,41.0431 5.36912,40.3764 5.5,39.5 Z"/></g>
<g><path style="opacity:1" fill="#e6a136" d="M 36.5,38.5 C 37.4959,38.4142 38.3292,38.7476 39,39.5C 39.346,41.2182 39.846,42.8849 40.5,44.5C 37.3062,46.2226 35.6395,48.8893 35.5,52.5C 34.1667,52.5 32.8333,52.5 31.5,52.5C 31.5,50.5 31.5,48.5 31.5,46.5C 32.8333,46.5 34.1667,46.5 35.5,46.5C 35.2786,43.7212 35.612,41.0545 36.5,38.5 Z"/></g>
<g><path style="opacity:1" fill="#efa738" d="M 12.5,42.5 C 16.8333,42.5 21.1667,42.5 25.5,42.5C 25.8204,45.8984 25.487,49.2317 24.5,52.5C 21.7272,44.3501 16.8938,42.6835 10,47.5C 8.99136,49.0249 8.49136,50.6916 8.5,52.5C 6.83333,52.5 5.16667,52.5 3.5,52.5C 3.5,51.1667 3.5,49.8333 3.5,48.5C 4.55198,48.6495 5.55198,48.4828 6.5,48C 8.76318,46.383 10.7632,44.5497 12.5,42.5 Z"/></g>
<g><path style="opacity:1" fill="#454545" d="M 13.5,46.5 C 21.8185,46.9869 23.4851,50.4869 18.5,57C 10.0878,56.8117 8.4211,53.3117 13.5,46.5 Z"/></g>
<g><path style="opacity:1" fill="#050505" d="M 14.5,48.5 C 19.4928,48.997 20.4928,51.1637 17.5,55C 12.3823,54.8242 11.3823,52.6576 14.5,48.5 Z"/></g>
<g><path style="opacity:1" fill="#454545" d="M 40.5,46.5 C 48.8185,46.9869 50.4851,50.4869 45.5,57C 37.0878,56.8117 35.4211,53.3117 40.5,46.5 Z"/></g>
<g><path style="opacity:1" fill="#050505" d="M 41.5,48.5 C 46.4928,48.997 47.4928,51.1637 44.5,55C 39.3823,54.8242 38.3823,52.6576 41.5,48.5 Z"/></g>
<g><path style="opacity:1" fill="#d9ae2c" d="M 14.5,50.5 C 15.5,50.5 16.5,50.5 17.5,50.5C 17.5,51.5 17.5,52.5 17.5,53.5C 16.5,53.5 15.5,53.5 14.5,53.5C 14.5,52.5 14.5,51.5 14.5,50.5 Z"/></g>
<g><path style="opacity:1" fill="#d9ae2c" d="M 41.5,50.5 C 42.5,50.5 43.5,50.5 44.5,50.5C 44.5,51.5 44.5,52.5 44.5,53.5C 43.5,53.5 42.5,53.5 41.5,53.5C 41.5,52.5 41.5,51.5 41.5,50.5 Z"/></g>
</svg>
