<?xml version="1.0" encoding="UTF-8"?>
<!DOCTYPE svg PUBLIC "-//W3C//DTD SVG 1.1//EN" "http://www.w3.org/Graphics/SVG/1.1/DTD/svg11.dtd">
<svg xmlns="http://www.w3.org/2000/svg" version="1.1" width="64px" height="64px" style="shape-rendering:geometricPrecision; text-rendering:geometricPrecision; image-rendering:optimizeQuality; fill-rule:evenodd; clip-rule:evenodd" xmlns:xlink="http://www.w3.org/1999/xlink">
<g><path style="opacity:0.968" fill="#f8df09" d="M 37.5,2.5 C 41.5,3.16667 43.8333,5.5 44.5,9.5C 44.6747,11.6208 44.3414,13.6208 43.5,15.5C 38.9711,12.4608 36.9711,8.12743 37.5,2.5 Z"/></g>
<g><path style="opacity:0.842" fill="#f9e207" d="M 25.5,6.5 C 24.8333,6.5 24.5,6.83333 24.5,7.5C 23.1667,10.1667 23.1667,12.8333 24.5,15.5C 24.5,16.1667 24.8333,16.5 25.5,16.5C 24.807,21.4721 23.307,21.4721 21,16.5C 20.1462,12.3749 20.4796,8.37491 22,4.5C 24.5525,1.80592 25.7192,2.47259 25.5,6.5 Z"/></g>
<g><path style="opacity:0.917" fill="#f9e107" d="M 25.5,16.5 C 24.8333,16.5 24.5,16.1667 24.5,15.5C 24.5,12.8333 24.5,10.1667 24.5,7.5C 25.1667,7.5 25.5,7.16667 25.5,6.5C 26.8235,5.15007 27.8235,5.31673 28.5,7C 27.1667,10 27.1667,13 28.5,16C 27.8235,17.6833 26.8235,17.8499 25.5,16.5 Z"/></g>
<g><path style="opacity:0.909" fill="#faba05" d="M 45.5,9.5 C 46.4959,9.41423 47.3292,9.74756 48,10.5C 48.4974,13.146 48.6641,15.8127 48.5,18.5C 47.5041,18.5858 46.6708,18.2524 46,17.5C 45.5026,14.854 45.3359,12.1873 45.5,9.5 Z"/></g>
<g><path style="opacity:0.963" fill="#56b6eb" d="M 7.5,10.5 C 10.8984,10.1796 14.2317,10.513 17.5,11.5C 14.9135,12.48 12.2469,12.8134 9.5,12.5C 9.7989,14.604 9.46557,16.604 8.5,18.5C 7.51998,15.9135 7.18665,13.2469 7.5,10.5 Z"/></g>
<g><path style="opacity:0.991" fill="#fac906" d="M 33.5,10.5 C 33.5,11.1667 33.5,11.8333 33.5,12.5C 32.4324,13.4345 31.099,13.7678 29.5,13.5C 29.5,12.1667 29.5,10.8333 29.5,9.5C 31.099,9.23219 32.4324,9.56552 33.5,10.5 Z"/></g>
<g><path style="opacity:1" fill="#e4972f" d="M 33.5,10.5 C 34.1667,10.5 34.8333,10.5 35.5,10.5C 35.5,11.1667 35.5,11.8333 35.5,12.5C 34.8333,12.5 34.1667,12.5 33.5,12.5C 33.5,11.8333 33.5,11.1667 33.5,10.5 Z"/></g>
<g><path style="opacity:1" fill="#e6992d" d="M 44.5,9.5 C 44.8333,9.5 45.1667,9.5 45.5,9.5C 45.3359,12.1873 45.5026,14.854 46,17.5C 46.6708,18.2524 47.5041,18.5858 48.5,18.5C 48.5,19.1667 48.5,19.8333 48.5,20.5C 46.5,20.5 44.5,20.5 42.5,20.5C 42.5,19.8333 42.5,19.1667 42.5,18.5C 42.5569,17.391 42.8902,16.391 43.5,15.5C 44.3414,13.6208 44.6747,11.6208 44.5,9.5 Z"/></g>
<g><path style="opacity:0.822" fill="#fcbc03" d="M 37.5,2.5 C 36.9711,8.12743 38.9711,12.4608 43.5,15.5C 42.8902,16.391 42.5569,17.391 42.5,18.5C 38.7139,19.6953 38.7139,20.362 42.5,20.5C 44.5,20.5 46.5,20.5 48.5,20.5C 49.8221,20.33 50.9887,20.6634 52,21.5C 55.4125,34.3978 58.2458,47.3978 60.5,60.5C 55.141,58.9878 50.141,56.6545 45.5,53.5C 40.859,56.6545 35.859,58.9878 30.5,60.5C 33.0377,47.1447 35.7044,33.8114 38.5,20.5C 37.5,20.5 36.5,20.5 35.5,20.5C 35.5,17.8333 35.5,15.1667 35.5,12.5C 35.5,11.8333 35.5,11.1667 35.5,10.5C 34.9644,7.30195 35.631,4.63528 37.5,2.5 Z M 41.5,25.5 C 42.7125,26.4971 42.5458,27.4971 41,28.5C 40.5304,27.4232 40.6971,26.4232 41.5,25.5 Z M 48.5,25.5 C 50.0847,26.0024 50.5847,27.0024 50,28.5C 48.9614,27.7562 48.4614,26.7562 48.5,25.5 Z M 44.5,29.5 C 51.1768,31.9719 51.5101,34.3052 45.5,36.5C 43.7338,35.9091 42.0672,35.0758 40.5,34C 42.0414,32.6288 43.3747,31.1288 44.5,29.5 Z M 38.5,36.5 C 43.7802,38.1439 43.7802,39.8106 38.5,41.5C 37.5661,39.9052 37.5661,38.2385 38.5,36.5 Z M 51.5,36.5 C 53.3003,37.8948 53.6336,39.5615 52.5,41.5C 50.9984,40.9169 49.6651,40.0836 48.5,39C 49.9423,38.6232 50.9423,37.7899 51.5,36.5 Z M 44.5,41.5 C 53.7925,44.2229 53.7925,46.7229 44.5,49C 42.8333,47.8333 41.1667,46.6667 39.5,45.5C 41.0147,43.9178 42.6814,42.5845 44.5,41.5 Z M 34.5,55.5 C 33.8036,47.0829 36.1369,45.7496 41.5,51.5C 39.3021,53.0981 36.9687,54.4314 34.5,55.5 Z M 56.5,55.5 C 54.0313,54.4314 51.6979,53.0981 49.5,51.5C 54.8631,45.7496 57.1964,47.0829 56.5,55.5 Z"/></g>
<g><path style="opacity:0.851" fill="#f9e107" d="M 12.5,25.5 C 12.5,24.8333 12.1667,24.5 11.5,24.5C 9.5,23.1667 7.5,23.1667 5.5,24.5C 4.5,24.5 3.5,24.5 2.5,24.5C 3.01896,21.2251 5.01896,19.8917 8.5,20.5C 11.0423,20.2177 13.0423,21.051 14.5,23C 14.3613,24.301 13.6946,25.1344 12.5,25.5 Z"/></g>
<g><path style="opacity:0.797" fill="#f9e207" d="M 5.5,24.5 C 7.5,24.5 9.5,24.5 11.5,24.5C 12.1667,24.5 12.5,24.8333 12.5,25.5C 11.6661,26.7479 10.3328,27.4146 8.5,27.5C 7.16667,27.1667 5.83333,26.8333 4.5,26.5C 4.86273,25.8165 5.19607,25.1499 5.5,24.5 Z"/></g>
<g><path style="opacity:0.763" fill="#f8e008" d="M 7.5,28.5 C 9.33702,28.6395 9.67036,29.3061 8.5,30.5C 7.70245,30.0431 7.36912,29.3764 7.5,28.5 Z"/></g>
<g><path style="opacity:0.787" fill="#84d1f4" d="M 25.5,42.5 C 25.1667,42.5 24.8333,42.5 24.5,42.5C 21.8544,39.1877 18.8544,36.1877 15.5,33.5C 12.1456,36.1877 9.1456,39.1877 6.5,42.5C 6.16667,42.5 5.83333,42.5 5.5,42.5C 4.44802,42.6495 3.44802,42.4828 2.5,42C 6.41499,37.5784 10.7483,33.7451 15.5,30.5C 20.2517,33.7451 24.585,37.5784 28.5,42C 27.552,42.4828 26.552,42.6495 25.5,42.5 Z"/></g>
<g><path style="opacity:1" fill="#5db5e5" d="M 24.5,42.5 C 23.5,42.5 22.5,42.5 21.5,42.5C 19.9408,40.3757 17.9408,38.709 15.5,37.5C 13.4293,39.1851 11.4293,40.8518 9.5,42.5C 8.5,42.5 7.5,42.5 6.5,42.5C 9.1456,39.1877 12.1456,36.1877 15.5,33.5C 18.8544,36.1877 21.8544,39.1877 24.5,42.5 Z"/></g>
<g><path style="opacity:1" fill="#656f7b" d="M 21.5,42.5 C 20.5,42.5 19.5,42.5 18.5,42.5C 16.5,38.5 14.5,38.5 12.5,42.5C 11.5,42.5 10.5,42.5 9.5,42.5C 11.4293,40.8518 13.4293,39.1851 15.5,37.5C 17.9408,38.709 19.9408,40.3757 21.5,42.5 Z"/></g>
<g><path style="opacity:1" fill="#8b9093" d="M 18.5,42.5 C 16.5,42.5 14.5,42.5 12.5,42.5C 14.5,38.5 16.5,38.5 18.5,42.5 Z"/></g>
<g><path style="opacity:1" fill="#d0d8da" d="M 5.5,42.5 C 5.83333,42.5 6.16667,42.5 6.5,42.5C 7.5,42.5 8.5,42.5 9.5,42.5C 10.5,42.5 11.5,42.5 12.5,42.5C 14.5,42.5 16.5,42.5 18.5,42.5C 19.5,42.5 20.5,42.5 21.5,42.5C 22.5,42.5 23.5,42.5 24.5,42.5C 24.8333,42.5 25.1667,42.5 25.5,42.5C 25.5,43.5 25.5,44.5 25.5,45.5C 20.1563,45.334 14.8229,45.5006 9.5,46C 8.42506,48.9448 9.09173,51.4448 11.5,53.5C 11.5,55.8333 11.5,58.1667 11.5,60.5C 9.5,60.5 7.5,60.5 5.5,60.5C 5.5,54.5 5.5,48.5 5.5,42.5 Z"/></g>
<g><path style="opacity:1" fill="#e8f0f1" d="M 25.5,45.5 C 25.5,49.1667 25.5,52.8333 25.5,56.5C 23.5,56.5 21.5,56.5 19.5,56.5C 19.5,54.5 19.5,52.5 19.5,50.5C 16.8333,50.5 14.1667,50.5 11.5,50.5C 11.5,51.5 11.5,52.5 11.5,53.5C 9.09173,51.4448 8.42506,48.9448 9.5,46C 14.8229,45.5006 20.1563,45.334 25.5,45.5 Z"/></g>
<g><path style="opacity:1" fill="#5dbaec" d="M 19.5,56.5 C 19.5,57.8333 19.5,59.1667 19.5,60.5C 16.8333,60.5 14.1667,60.5 11.5,60.5C 11.5,58.1667 11.5,55.8333 11.5,53.5C 11.5,52.5 11.5,51.5 11.5,50.5C 14.1667,50.5 16.8333,50.5 19.5,50.5C 19.5,52.5 19.5,54.5 19.5,56.5 Z"/></g>
<g><path style="opacity:1" fill="#cfd8d9" d="M 19.5,56.5 C 21.5,56.5 23.5,56.5 25.5,56.5C 25.5,57.8333 25.5,59.1667 25.5,60.5C 23.5,60.5 21.5,60.5 19.5,60.5C 19.5,59.1667 19.5,57.8333 19.5,56.5 Z"/></g>
</svg>
