<?xml version="1.0" encoding="UTF-8"?>
<!DOCTYPE svg PUBLIC "-//W3C//DTD SVG 1.1//EN" "http://www.w3.org/Graphics/SVG/1.1/DTD/svg11.dtd">
<svg xmlns="http://www.w3.org/2000/svg" version="1.1" width="48px" height="48px" style="shape-rendering:geometricPrecision; text-rendering:geometricPrecision; image-rendering:optimizeQuality; fill-rule:evenodd; clip-rule:evenodd" xmlns:xlink="http://www.w3.org/1999/xlink">
<g><path style="opacity:0.949" fill="#fddc00" d="M 34.5,4.5 C 29.1667,5.83333 23.8333,5.83333 18.5,4.5C 19.2341,3.29208 19.5674,1.95875 19.5,0.5C 25.2055,0.171237 30.8722,0.50457 36.5,1.5C 36.0576,2.73867 35.3909,3.73867 34.5,4.5 Z"/></g>
<g><path style="opacity:0.93" fill="#fcd400" d="M 18.5,4.5 C 23.8333,5.83333 29.1667,5.83333 34.5,4.5C 33.3411,8.15127 31.6744,11.4846 29.5,14.5C 25.3656,13.5151 21.0323,13.1818 16.5,13.5C 16.7556,10.4021 17.4222,7.40206 18.5,4.5 Z"/></g>
<g><path style="opacity:0.976" fill="#fac700" d="M 16.5,13.5 C 21.0323,13.1818 25.3656,13.5151 29.5,14.5C 29.1231,16.258 28.4565,17.9246 27.5,19.5C 30.4281,20.4841 33.4281,20.8174 36.5,20.5C 36.7373,21.791 36.404,22.791 35.5,23.5C 35.5654,23.0618 35.3988,22.7284 35,22.5C 27.5009,23.1825 20.0009,23.8491 12.5,24.5C 13.4624,20.6052 14.7957,16.9385 16.5,13.5 Z"/></g>
<g><path style="opacity:0.944" fill="#f8bd00" d="M 35.5,23.5 C 33.6281,26.5819 31.2948,29.2486 28.5,31.5C 25.8333,31.5 23.1667,31.5 20.5,31.5C 20.4208,30.0695 20.7542,28.7362 21.5,27.5C 18.0609,27.0935 15.0609,26.0935 12.5,24.5C 20.0009,23.8491 27.5009,23.1825 35,22.5C 35.3988,22.7284 35.5654,23.0618 35.5,23.5 Z"/></g>
<g><path style="opacity:0.89" fill="#f6af00" d="M 20.5,31.5 C 23.1667,31.5 25.8333,31.5 28.5,31.5C 25.2768,37.0635 21.2768,42.0635 16.5,46.5C 16.7124,41.3238 18.0458,36.3238 20.5,31.5 Z"/></g>
</svg>
