<?xml version="1.0" encoding="UTF-8"?>
<!DOCTYPE svg PUBLIC "-//W3C//DTD SVG 1.1//EN" "http://www.w3.org/Graphics/SVG/1.1/DTD/svg11.dtd">
<svg xmlns="http://www.w3.org/2000/svg" version="1.1" width="64px" height="64px" style="shape-rendering:geometricPrecision; text-rendering:geometricPrecision; image-rendering:optimizeQuality; fill-rule:evenodd; clip-rule:evenodd" xmlns:xlink="http://www.w3.org/1999/xlink">
<g><path style="opacity:0.833" fill="#df8921" d="M 40.5,5.5 C 38.9582,6.30071 37.2915,6.63404 35.5,6.5C 35.1667,6.5 34.8333,6.5 34.5,6.5C 32.8333,6.5 31.1667,6.5 29.5,6.5C 28.8333,6.5 28.1667,6.5 27.5,6.5C 25.7085,6.63404 24.0418,6.30071 22.5,5.5C 25.0866,4.18363 28.0866,3.51697 31.5,3.5C 34.9134,3.51697 37.9134,4.18363 40.5,5.5 Z"/></g>
<g><path style="opacity:0.867" fill="#a15a1d" d="M 22.5,5.5 C 24.0418,6.30071 25.7085,6.63404 27.5,6.5C 27.5,7.5 27.5,8.5 27.5,9.5C 27.5,10.5 27.5,11.5 27.5,12.5C 27.5,13.1667 27.5,13.8333 27.5,14.5C 26.5284,16.4931 25.1951,16.8264 23.5,15.5C 24.7456,6.53189 23.7456,6.53189 20.5,15.5C 19.5,15.5 18.5,15.5 17.5,15.5C 19.1667,12.1667 20.8333,8.83333 22.5,5.5 Z M 23.5,15.5 C 22.5,15.5 21.5,15.5 20.5,15.5C 23.7456,6.53189 24.7456,6.53189 23.5,15.5 Z"/></g>
<g><path style="opacity:0.867" fill="#a15a1d" d="M 40.5,5.5 C 42.1667,8.83333 43.8333,12.1667 45.5,15.5C 44.5,15.5 43.5,15.5 42.5,15.5C 39.2544,6.53189 38.2544,6.53189 39.5,15.5C 37.8049,16.8264 36.4716,16.4931 35.5,14.5C 35.5,13.8333 35.5,13.1667 35.5,12.5C 35.5,11.5 35.5,10.5 35.5,9.5C 35.5,8.5 35.5,7.5 35.5,6.5C 37.2915,6.63404 38.9582,6.30071 40.5,5.5 Z M 42.5,15.5 C 41.5,15.5 40.5,15.5 39.5,15.5C 38.2544,6.53189 39.2544,6.53189 42.5,15.5 Z"/></g>
<g><path style="opacity:0.601" fill="#ffc84a" d="M 27.5,6.5 C 28.1667,6.5 28.8333,6.5 29.5,6.5C 31.1667,9.16667 32.8333,9.16667 34.5,6.5C 34.8333,6.5 35.1667,6.5 35.5,6.5C 35.5,7.5 35.5,8.5 35.5,9.5C 32.8333,10.5 32.8333,11.5 35.5,12.5C 35.5,13.1667 35.5,13.8333 35.5,14.5C 35.5,15.1667 35.1667,15.5 34.5,15.5C 32.7025,11.8861 30.7025,11.8861 28.5,15.5C 27.8333,15.5 27.5,15.1667 27.5,14.5C 27.5,13.8333 27.5,13.1667 27.5,12.5C 30.1667,11.5 30.1667,10.5 27.5,9.5C 27.5,8.5 27.5,7.5 27.5,6.5 Z M 29.5,6.5 C 31.1667,6.5 32.8333,6.5 34.5,6.5C 32.8333,9.16667 31.1667,9.16667 29.5,6.5 Z M 34.5,15.5 C 32.5,15.5 30.5,15.5 28.5,15.5C 30.7025,11.8861 32.7025,11.8861 34.5,15.5 Z"/></g>
<g><path style="opacity:0.825" fill="#e28b22" d="M 27.5,14.5 C 27.5,15.1667 27.8333,15.5 28.5,15.5C 30.5,15.5 32.5,15.5 34.5,15.5C 35.1667,15.5 35.5,15.1667 35.5,14.5C 36.4716,16.4931 37.8049,16.8264 39.5,15.5C 40.5,15.5 41.5,15.5 42.5,15.5C 43.5,15.5 44.5,15.5 45.5,15.5C 46.7368,18.0636 45.9035,20.0636 43,21.5C 41.9231,20.5705 40.7564,19.9038 39.5,19.5C 38.791,18.596 37.791,18.2627 36.5,18.5C 35.609,19.1098 34.609,19.4431 33.5,19.5C 32.1667,19.5 30.8333,19.5 29.5,19.5C 28.609,18.8902 27.609,18.5569 26.5,18.5C 25.209,18.2627 24.209,18.596 23.5,19.5C 20.3832,22.3499 18.0499,21.6833 16.5,17.5C 16.5427,16.5836 16.8761,15.9169 17.5,15.5C 18.5,15.5 19.5,15.5 20.5,15.5C 21.5,15.5 22.5,15.5 23.5,15.5C 25.1951,16.8264 26.5284,16.4931 27.5,14.5 Z M 29.5,19.5 C 30.8333,19.5 32.1667,19.5 33.5,19.5C 32.1667,22.1667 30.8333,22.1667 29.5,19.5 Z"/></g>
<g><path style="opacity:0.851" fill="#a66222" d="M 26.5,18.5 C 26.5569,19.609 26.8902,20.609 27.5,21.5C 26.5489,22.9187 26.2155,24.5853 26.5,26.5C 26.5,27.1667 26.5,27.8333 26.5,28.5C 25.1667,28.5 23.8333,28.5 22.5,28.5C 23.4025,25.6085 23.7359,22.6085 23.5,19.5C 24.209,18.596 25.209,18.2627 26.5,18.5 Z"/></g>
<g><path style="opacity:0.619" fill="#fdc04a" d="M 26.5,18.5 C 27.609,18.5569 28.609,18.8902 29.5,19.5C 30.8333,22.1667 32.1667,22.1667 33.5,19.5C 34.609,19.4431 35.609,19.1098 36.5,18.5C 36.4431,19.609 36.1098,20.609 35.5,21.5C 32.9409,23.4566 33.2742,25.1233 36.5,26.5C 36.5,27.1667 36.5,27.8333 36.5,28.5C 35.8333,28.5 35.1667,28.5 34.5,28.5C 32.5,24.5 30.5,24.5 28.5,28.5C 27.8333,28.5 27.1667,28.5 26.5,28.5C 26.5,27.8333 26.5,27.1667 26.5,26.5C 29.7258,25.1233 30.0591,23.4566 27.5,21.5C 26.8902,20.609 26.5569,19.609 26.5,18.5 Z M 29.5,19.5 C 30.8333,19.5 32.1667,19.5 33.5,19.5C 32.1667,22.1667 30.8333,22.1667 29.5,19.5 Z M 34.5,28.5 C 32.5,28.5 30.5,28.5 28.5,28.5C 30.5,24.5 32.5,24.5 34.5,28.5 Z"/></g>
<g><path style="opacity:0.851" fill="#a76222" d="M 36.5,18.5 C 37.791,18.2627 38.791,18.596 39.5,19.5C 39.2641,22.6085 39.5975,25.6085 40.5,28.5C 39.1667,28.5 37.8333,28.5 36.5,28.5C 36.5,27.8333 36.5,27.1667 36.5,26.5C 36.7845,24.5853 36.4511,22.9187 35.5,21.5C 36.1098,20.609 36.4431,19.609 36.5,18.5 Z"/></g>
<g><path style="opacity:0.809" fill="#e18a22" d="M 22.5,28.5 C 23.8333,28.5 25.1667,28.5 26.5,28.5C 27.1667,28.5 27.8333,28.5 28.5,28.5C 30.5,28.5 32.5,28.5 34.5,28.5C 35.1667,28.5 35.8333,28.5 36.5,28.5C 37.8333,28.5 39.1667,28.5 40.5,28.5C 41.4345,29.5676 41.7678,30.901 41.5,32.5C 39.8333,31.1667 38.1667,31.1667 36.5,32.5C 36.1583,31.6618 35.4916,31.3284 34.5,31.5C 32.8333,31.5 31.1667,31.5 29.5,31.5C 28.5,31.5 27.5,31.5 26.5,31.5C 24.7085,31.366 23.0418,31.6993 21.5,32.5C 21.2322,30.901 21.5655,29.5676 22.5,28.5 Z"/></g>
<g><path style="opacity:0.829" fill="#a05b1e" d="M 26.5,31.5 C 26.5,32.1667 26.5,32.8333 26.5,33.5C 25.8505,35.4352 25.5172,37.4352 25.5,39.5C 25.5,39.8333 25.5,40.1667 25.5,40.5C 24.5,41.8333 23.5,41.8333 22.5,40.5C 22.3949,35.3402 21.7283,35.3402 20.5,40.5C 19.5,40.5 18.5,40.5 17.5,40.5C 18.8333,37.8333 20.1667,35.1667 21.5,32.5C 23.0418,31.6993 24.7085,31.366 26.5,31.5 Z M 22.5,40.5 C 21.8333,40.5 21.1667,40.5 20.5,40.5C 21.7283,35.3402 22.3949,35.3402 22.5,40.5 Z"/></g>
<g><path style="opacity:0.628" fill="#fec34a" d="M 26.5,31.5 C 27.5,31.5 28.5,31.5 29.5,31.5C 31.1667,34.1667 32.8333,34.1667 34.5,31.5C 35.4916,31.3284 36.1583,31.6618 36.5,32.5C 36.5,32.8333 36.5,33.1667 36.5,33.5C 32.8541,35.6661 33.1875,37.6661 37.5,39.5C 37.5,40.1667 37.5,40.8333 37.5,41.5C 36.609,40.8902 35.609,40.5569 34.5,40.5C 32.7025,36.8861 30.7025,36.8861 28.5,40.5C 27.5,40.5 26.5,40.5 25.5,40.5C 25.5,40.1667 25.5,39.8333 25.5,39.5C 29.8454,37.6148 30.1788,35.6148 26.5,33.5C 26.5,32.8333 26.5,32.1667 26.5,31.5 Z M 29.5,31.5 C 31.1667,31.5 32.8333,31.5 34.5,31.5C 32.8333,34.1667 31.1667,34.1667 29.5,31.5 Z M 34.5,40.5 C 32.5,40.5 30.5,40.5 28.5,40.5C 30.7025,36.8861 32.7025,36.8861 34.5,40.5 Z"/></g>
<g><path style="opacity:0.882" fill="#a05c1e" d="M 41.5,32.5 C 42.8333,35.1667 44.1667,37.8333 45.5,40.5C 44.6522,41.625 43.6522,41.625 42.5,40.5C 41.2717,35.3402 40.6051,35.3402 40.5,40.5C 39.791,41.404 38.791,41.7373 37.5,41.5C 37.5,40.8333 37.5,40.1667 37.5,39.5C 37.4828,37.4352 37.1495,35.4352 36.5,33.5C 36.5,33.1667 36.5,32.8333 36.5,32.5C 38.1667,31.1667 39.8333,31.1667 41.5,32.5 Z M 42.5,40.5 C 41.8333,40.5 41.1667,40.5 40.5,40.5C 40.6051,35.3402 41.2717,35.3402 42.5,40.5 Z"/></g>
<g><path style="opacity:0.812" fill="#e58e23" d="M 17.5,40.5 C 18.5,40.5 19.5,40.5 20.5,40.5C 21.1667,40.5 21.8333,40.5 22.5,40.5C 23.5,41.8333 24.5,41.8333 25.5,40.5C 26.5,40.5 27.5,40.5 28.5,40.5C 30.5,40.5 32.5,40.5 34.5,40.5C 35.609,40.5569 36.609,40.8902 37.5,41.5C 38.791,41.7373 39.791,41.404 40.5,40.5C 41.1667,40.5 41.8333,40.5 42.5,40.5C 43.6522,41.625 44.6522,41.625 45.5,40.5C 46.5,40.5 47.5,40.5 48.5,40.5C 48.0753,45.9112 45.7419,47.2445 41.5,44.5C 40.1667,43.1667 38.8333,43.1667 37.5,44.5C 33.5,44.5 29.5,44.5 25.5,44.5C 24.1667,43.1667 22.8333,43.1667 21.5,44.5C 17.2581,47.2445 14.9247,45.9112 14.5,40.5C 15.5,40.5 16.5,40.5 17.5,40.5 Z"/></g>
<g><path style="opacity:0.792" fill="#a6601f" d="M 25.5,44.5 C 25.4249,47.2062 25.0916,49.8728 24.5,52.5C 23.5,52.5 22.5,52.5 21.5,52.5C 21.5,49.8333 21.5,47.1667 21.5,44.5C 22.8333,43.1667 24.1667,43.1667 25.5,44.5 Z"/></g>
<g><path style="opacity:0.585" fill="#a9621e" d="M 41.5,44.5 C 41.5,47.1667 41.5,49.8333 41.5,52.5C 40.5,52.5 39.5,52.5 38.5,52.5C 37.9084,49.8728 37.5751,47.2062 37.5,44.5C 38.8333,43.1667 40.1667,43.1667 41.5,44.5 Z"/></g>
<g><path style="opacity:1" fill="#dea02e" d="M 21.5,52.5 C 22.5,52.5 23.5,52.5 24.5,52.5C 29.1667,52.5 33.8333,52.5 38.5,52.5C 39.5,52.5 40.5,52.5 41.5,52.5C 47.5,52.5 53.5,52.5 59.5,52.5C 59.5,53.5 59.5,54.5 59.5,55.5C 43.8333,55.5 28.1667,55.5 12.5,55.5C 11.9965,59.3354 10.9965,59.3354 9.5,55.5C 8.57131,56.6888 8.23798,58.0222 8.5,59.5C 6.83333,59.5 5.16667,59.5 3.5,59.5C 3.5,57.1667 3.5,54.8333 3.5,52.5C 9.5,52.5 15.5,52.5 21.5,52.5 Z"/></g>
<g><path style="opacity:0.98" fill="#f8ba31" d="M 59.5,55.5 C 59.5,56.8333 59.5,58.1667 59.5,59.5C 42.5,59.5 25.5,59.5 8.5,59.5C 8.23798,58.0222 8.57131,56.6888 9.5,55.5C 10.9965,59.3354 11.9965,59.3354 12.5,55.5C 28.1667,55.5 43.8333,55.5 59.5,55.5 Z"/></g>
</svg>
