<?xml version="1.0" encoding="UTF-8"?>
<svg version="1.1" xmlns="http://www.w3.org/2000/svg" width="512" height="512">
<path d="M0 0 C1.80442088 0.34975654 3.60896327 0.69888674 5.41362 1.04742432 C9.17445179 1.77649985 12.93356253 2.51375059 16.69165039 3.25683594 C21.49436563 4.2056867 26.30098757 5.13276478 31.109128 6.05367661 C34.8282065 6.76867076 38.54486266 7.49566396 42.26091576 8.22620392 C44.0323007 8.57285637 45.80443489 8.91570386 47.57732582 9.25457001 C50.05585156 9.73006833 52.53062493 10.22181761 55.00512695 10.71777344 C55.72786804 10.85300415 56.45060913 10.98823486 57.19525146 11.12756348 C63.57392403 12.437675 68.92950901 15.01789013 73.55834961 19.73754883 C74.13262192 20.31527542 74.70689423 20.89300201 75.29856873 21.48823547 C75.89355667 22.10184433 76.48854462 22.71545319 77.1015625 23.34765625 C77.73856583 23.99127609 78.37556915 24.63489594 79.03187561 25.29801941 C81.05329083 27.34267409 83.06423071 29.39724131 85.07421875 31.453125 C87.08231575 33.49654941 89.09263482 35.53771364 91.10585022 37.57609558 C92.35256727 38.83948211 93.59616908 40.10595407 94.83592224 41.37617493 C98.5558616 45.15898211 102.41471183 48.70836625 106.44093323 52.16386414 C107.71644638 53.27463427 108.94073713 54.44464338 110.13671875 55.640625 C112.44068501 55.85575303 112.44068501 55.85575303 115.13037109 55.68408203 C116.17260834 55.64388947 117.21484558 55.6036969 118.28866577 55.56228638 C119.42188263 55.50821625 120.55509949 55.45414612 121.72265625 55.3984375 C122.8899527 55.35121552 124.05724915 55.30399353 125.25991821 55.25534058 C129.0109984 55.10182122 132.76128957 54.93424299 136.51171875 54.765625 C140.22650711 54.60684036 143.94139898 54.45099637 147.65640259 54.29733276 C149.96952291 54.20075728 152.28250561 54.1008035 154.5953064 53.99685669 C159.9742994 53.76393062 165.35105596 53.5845908 170.73486328 53.51757812 C171.69329132 53.50521118 172.65171936 53.49284424 173.63919067 53.48010254 C177.52892029 53.73010532 179.34213738 54.96933398 182.13671875 57.640625 C184.46837166 60.40686716 186.55985432 63.30500746 188.63671875 66.265625 C189.86122217 67.96893007 191.08784539 69.6707129 192.31640625 71.37109375 C192.94256836 72.24040527 193.56873047 73.1097168 194.21386719 74.00537109 C197.31697245 78.258154 200.52951101 82.42304141 203.76171875 86.578125 C204.34115234 87.32852051 204.92058594 88.07891602 205.51757812 88.85205078 C206.06478516 89.55442871 206.61199219 90.25680664 207.17578125 90.98046875 C207.65225098 91.59269287 208.1287207 92.20491699 208.61962891 92.83569336 C212.19555495 97.09009009 215.21941086 99.38464423 220.38671875 101.55859375 C221.29679184 101.94655876 221.29679184 101.94655876 222.22525024 102.34236145 C223.52187611 102.8939479 224.82032822 103.44125788 226.12042236 103.98461914 C228.15275442 104.83483343 230.17927596 105.69766509 232.20458984 106.56445312 C236.17872139 108.26419041 240.15738892 109.95310165 244.13671875 111.640625 C248.02028446 113.28835497 251.89515881 114.95341891 255.76171875 116.640625 C256.96634766 117.14565552 256.96634766 117.14565552 258.1953125 117.66088867 C258.93136719 117.98420166 259.66742188 118.30751465 260.42578125 118.640625 C261.05178223 118.90875 261.6777832 119.176875 262.32275391 119.453125 C267.11249806 122.5886991 268.7896741 126.84203826 270.20703125 132.19140625 C270.54605469 133.44759766 270.88507813 134.70378906 271.234375 135.99804688 C271.57705746 137.31634531 271.91950373 138.63470515 272.26171875 139.953125 C272.61086268 141.2600644 272.96111409 142.56670847 273.3125 143.87304688 C274.69020387 149.03283819 276.04138531 154.17804691 277.16796875 159.3984375 C277.85177335 162.59959074 277.85177335 162.59959074 279.72265625 164.26953125 C280.31304687 164.57761719 280.9034375 164.88570312 281.51171875 165.203125 C285.47533017 167.30715661 287.4336324 170.59443609 289.13671875 174.640625 C289.6989044 177.61586187 289.74526665 180.51654355 289.73828125 183.5390625 C289.7468515 184.37345856 289.75542175 185.20785461 289.76425171 186.0675354 C289.77568144 187.82395823 289.77678082 189.58047567 289.76806641 191.33691406 C289.76175028 194.00232026 289.80869547 196.66326754 289.859375 199.328125 C289.97354012 214.7104532 289.97354012 214.7104532 284.75073242 221.11157227 C280.6101198 225.03422495 277.02025559 226.84500559 271.19921875 226.890625 C269.84465818 226.81396032 268.49038497 226.73172698 267.13671875 226.640625 C266.97842087 228.45655655 266.97842087 228.45655655 266.81692505 230.30917358 C266.10986369 236.62553395 264.6675073 242.75433051 263.25341797 248.94384766 C262.9556327 250.26374788 262.65831295 251.58375321 262.36141968 252.90385437 C261.7250626 255.72972747 261.0858744 258.55493938 260.44454575 261.37968826 C259.43000551 265.85031526 258.42451994 270.32294882 257.42068481 274.79598999 C254.56626228 287.50943701 251.70231302 300.22071173 248.82373047 312.92871094 C247.23110517 319.95998947 245.64724963 326.99318499 244.07294858 334.02858961 C243.07810566 338.47213404 242.07255682 342.9130725 241.05896354 347.35237527 C240.43061934 350.11629674 239.81256035 352.88244291 239.19736099 355.64931679 C238.77481826 357.53553588 238.3401223 359.4190197 237.9050293 361.30238342 C236.21064508 368.9902801 236.08846686 373.83775631 238.17578125 381.41015625 C242.32836075 397.48303611 239.08584982 414.87243267 230.89453125 429.01171875 C221.7557117 442.6793311 208.47153832 452.49501036 192.35717773 456.26342773 C175.36367398 459.15017466 158.49699062 456.24258985 144.13671875 446.640625 C130.75017797 436.22231867 123.24746263 424.08360053 119.13671875 407.640625 C62.37671875 407.640625 5.61671875 407.640625 -52.86328125 407.640625 C-54.18328125 411.930625 -55.50328125 416.220625 -56.86328125 420.640625 C-64.01264683 435.77067773 -75.35536417 447.16713668 -90.86328125 453.640625 C-92.00410156 454.12208984 -92.00410156 454.12208984 -93.16796875 454.61328125 C-108.08486029 459.7364948 -125.6612522 457.64805374 -139.73828125 451.35546875 C-154.83745533 443.82685278 -164.92598434 431.20994539 -170.86328125 415.640625 C-172.8216168 409.28602597 -173.21163918 403.45899689 -173.17578125 396.828125 C-173.17521729 395.85343262 -173.17465332 394.87874023 -173.17407227 393.87451172 C-173.09796328 387.93005172 -172.64121781 382.63756763 -170.421875 377.0546875 C-168.7161938 369.68328205 -172.10613706 360.60987826 -173.73071289 353.41918945 C-174.02675985 352.09616498 -174.32246062 350.773063 -174.61784363 349.44989014 C-175.25142652 346.61483874 -175.8872774 343.78030929 -176.52488899 340.94616127 C-177.5332943 336.46306352 -178.53561542 331.9786189 -179.53697205 327.49394226 C-182.0237672 316.36083594 -184.51778031 305.22934835 -187.01470947 294.09851074 C-188.95812638 285.43494851 -190.89924166 276.77088597 -192.83296293 268.10515374 C-193.82781121 263.64809356 -194.82757424 259.19217356 -195.83106053 254.73705065 C-196.45390515 251.9667825 -197.07232892 249.19554133 -197.68953133 246.42401123 C-198.11294753 244.52891331 -198.54167029 242.63500347 -198.97055054 240.74113464 C-199.34701973 239.04430038 -199.34701973 239.04430038 -199.73109436 237.31318665 C-199.95102586 236.33264974 -200.17095736 235.35211283 -200.39755344 234.34186268 C-200.85061661 231.71408037 -200.95101929 229.30080622 -200.86328125 226.640625 C-202.16265625 226.764375 -203.46203125 226.888125 -204.80078125 227.015625 C-210.60756301 227.00646604 -214.75361226 224.65599948 -218.86328125 220.640625 C-222.57568046 215.19019331 -223.47993364 211.27144255 -223.46484375 204.7421875 C-223.473414 203.90779144 -223.48198425 203.07339539 -223.49081421 202.2137146 C-223.50224394 200.45729177 -223.50334332 198.70077433 -223.49462891 196.94433594 C-223.48831278 194.27892974 -223.53525797 191.61798246 -223.5859375 188.953125 C-223.69932035 173.56600676 -223.69932035 173.56600676 -218.42236328 167.12084961 C-215.80687754 164.63765355 -213.57155227 162.640625 -209.86328125 162.640625 C-209.63455322 161.86098389 -209.4058252 161.08134277 -209.17016602 160.27807617 C-207.44631392 155.48008021 -205.21483685 151.00579596 -202.953125 146.44140625 C-202.46679092 145.45174362 -201.98045685 144.46208099 -201.47938538 143.44242859 C-199.9234278 140.27755188 -198.36239353 137.11521485 -196.80078125 133.953125 C-194.76628428 129.82517414 -192.73443442 125.69592635 -190.703125 121.56640625 C-190.20702728 120.56046417 -189.71092957 119.55452209 -189.19979858 118.51809692 C-186.8272965 113.69514478 -184.48493519 108.86206693 -182.21533203 103.98974609 C-181.60172569 102.67407906 -181.60172569 102.67407906 -180.97572327 101.33183289 C-180.21757675 99.69824917 -179.46510866 98.06201305 -178.71946716 96.42268372 C-178.38479935 95.70078354 -178.05013153 94.97888336 -177.70532227 94.23510742 C-177.41996109 93.60956467 -177.13459991 92.98402191 -176.84059143 92.33952332 C-174.72002368 88.65325354 -172.37306113 87.22723894 -168.39306641 85.89819336 C-167.48479095 85.58987579 -166.5765155 85.28155823 -165.64071655 84.96389771 C-164.65455353 84.63936615 -163.6683905 84.31483459 -162.65234375 83.98046875 C-161.62517242 83.63531219 -160.5980011 83.29015564 -159.53970337 82.93453979 C-157.33627022 82.19486893 -155.13162378 81.45880453 -152.92590332 80.72598267 C-149.46894937 79.57166988 -146.02044951 78.39474433 -142.57324219 77.21166992 C-123.24971972 70.60691826 -123.24971972 70.60691826 -114.15234375 68.3515625 C-90.17296438 62.09223921 -76.04968099 44.70633018 -60.3046875 26.5546875 C-55.65248469 21.2013292 -50.81186916 16.03014047 -45.88598633 10.92871094 C-44.74291597 9.73358641 -43.61168311 8.52703022 -42.49243164 7.30957031 C-40.84905143 5.52550698 -39.16875934 3.78455182 -37.4765625 2.046875 C-36.99173904 1.50325317 -36.50691559 0.95963135 -36.00740051 0.39953613 C-27.30372486 -8.2634908 -10.66903273 -2.10947316 0 0 Z " fill="#000000" transform="translate(222.86328125,29.359375)"/>
<path d="M0 0 C140.58 0 281.16 0 426 0 C424.87495357 11.25046429 424.87495357 11.25046429 423.94410706 15.43431091 C423.73526886 16.38610733 423.52643066 17.33790375 423.31126404 18.31854248 C423.08423294 19.3251593 422.85720184 20.33177612 422.62329102 21.36889648 C422.38251831 22.45793777 422.14174561 23.54697906 421.89367676 24.66902161 C421.10297615 28.23771713 420.30377265 31.80444234 419.50390625 35.37109375 C418.94929108 37.86060879 418.39501047 40.35019838 417.84104919 42.83985901 C416.68229793 48.0411608 415.51939066 53.24150916 414.35327148 58.44116211 C413.00587313 64.44950826 411.66737066 70.45978617 410.33332878 76.47111076 C409.04640012 82.26881237 407.75237558 88.06491329 406.45536613 93.86036873 C405.90525579 96.32199073 405.35705836 98.784041 404.81079292 101.24651909 C404.04865846 104.67803365 403.27847674 108.10764293 402.50610352 111.53686523 C402.16859322 113.06804489 402.16859322 113.06804489 401.82426453 114.63015747 C401.61260651 115.56221512 401.40094849 116.49427277 401.18287659 117.45457458 C401.00166039 118.26474753 400.8204442 119.07492048 400.63373661 119.90964413 C400 122 400 122 398 125 C397.41734375 124.55269531 396.8346875 124.10539062 396.234375 123.64453125 C381.36370147 112.6785786 365.67922671 109.1795773 347.53515625 111.4296875 C332.68151486 114.34640254 319.82650822 122.86969683 310.80078125 134.94140625 C309.08837253 137.58002347 307.51049968 140.24188996 306 143 C305.4225 143.99 304.845 144.98 304.25 146 C302.37424681 150.50180766 301.28321262 155.29488708 300 160 C242.58 160 185.16 160 126 160 C124.68 155.71 123.36 151.42 122 147 C114.67065091 131.48905192 103.16344726 120.01174537 87 114 C72.7263817 109.04995688 56.30825922 109.21567341 42.515625 115.6171875 C37.12985249 118.45629382 32.03324163 121.5869971 27 125 C22.84694731 107.46272222 18.8024515 89.89989705 14.8175354 72.32369995 C14.31489341 70.11104721 13.80999617 67.89890557 13.30282593 65.68728638 C12.58236301 62.5429039 11.8702823 59.3967308 11.16015625 56.25 C10.94173065 55.30422592 10.72330505 54.35845184 10.4982605 53.38401794 C9.48094459 48.83530011 8.73127868 44.69606295 9 40 C9.63004944 39.99635437 10.26009888 39.99270874 10.90924072 39.98895264 C17.46314464 39.94716288 24.01634595 39.87784201 30.56982422 39.79248047 C33.01604182 39.76424365 35.46235112 39.74304269 37.90869141 39.72900391 C41.42398114 39.70761269 44.93816512 39.66097962 48.453125 39.609375 C50.0955014 39.60753204 50.0955014 39.60753204 51.77105713 39.60565186 C52.79181335 39.58593323 53.81256958 39.5662146 54.86425781 39.54589844 C55.76138489 39.53701599 56.65851196 39.52813354 57.58282471 39.51898193 C60.75405636 38.83809961 61.95315194 37.45746588 64 35 C65.56935594 31.86128812 65.35201103 29.46144178 65 26 C63.34015313 23.41861554 62.61278293 22.42780363 60 21 C55.7605566 20.23710863 51.56019624 20.27887148 47.26171875 20.29296875 C46.02581497 20.27784744 44.78991119 20.26272614 43.51655579 20.24714661 C40.24321905 20.21149278 36.97070394 20.19711157 33.69720459 20.19311523 C30.3519655 20.18376844 27.00718269 20.14592739 23.66210938 20.11132812 C17.10806572 20.04840296 10.5543217 20.01352707 4 20 C2.81982662 16.49637903 1.68823769 13.04543547 0.875 9.4375 C0.62363281 8.35275391 0.62363281 8.35275391 0.3671875 7.24609375 C0 5 0 5 0 0 Z " fill="#FEC043" transform="translate(43,256)"/>
<path d="M0 0 C155.76 0 311.52 0 472 0 C472 8.25 472 16.5 472 25 C316.24 25 160.48 25 0 25 C0 16.75 0 8.5 0 0 Z " fill="#8690AF" transform="translate(20,211)"/>
<path d="M0 0 C10.25852706 6.32091061 16.22552373 15.25047309 19.5703125 26.6796875 C20.90432619 38.48415752 18.31032942 50.03695076 11.265625 59.68359375 C4.24534518 67.94940709 -4.88991401 73.90704133 -15.890625 74.90234375 C-28.26103651 75.30996476 -39.33123763 71.9672424 -48.65234375 63.7109375 C-57.66863589 54.40814636 -60.88824924 42.85075976 -60.7734375 30.1640625 C-59.73202139 19.60789016 -53.74863475 10.45915749 -46.0546875 3.4296875 C-32.46470025 -7.61030214 -15.15126219 -8.23332254 0 0 Z " fill="#848EAD" transform="translate(422.4296875,391.3203125)"/>
<path d="M0 0 C10.25852706 6.32091061 16.22552373 15.25047309 19.5703125 26.6796875 C20.90432619 38.48415752 18.31032942 50.03695076 11.265625 59.68359375 C4.24534518 67.94940709 -4.88991401 73.90704133 -15.890625 74.90234375 C-28.26103651 75.30996476 -39.33123763 71.9672424 -48.65234375 63.7109375 C-57.66863589 54.40814636 -60.88824924 42.85075976 -60.7734375 30.1640625 C-59.73202139 19.60789016 -53.74863475 10.45915749 -46.0546875 3.4296875 C-32.46470025 -7.61030214 -15.15126219 -8.23332254 0 0 Z " fill="#848EAD" transform="translate(130.4296875,391.3203125)"/>
<path d="M0 0 C5.11841853 4.61448157 8.75297498 10.14584112 12.625 15.8125 C13.6759082 17.33725952 13.6759082 17.33725952 14.74804688 18.89282227 C16.83676164 21.92532844 18.9186756 24.96241873 21 28 C22.16350254 29.6904897 23.32751827 31.38062638 24.4921875 33.0703125 C26.99996561 36.71001367 29.50201238 40.35357315 32 44 C29.03969833 48.02371101 25.70692062 51.01001703 21.75 54 C20.49900136 54.96354858 19.24904336 55.9284494 18 56.89453125 C17.34773438 57.39807129 16.69546875 57.90161133 16.0234375 58.42041016 C12.55801039 61.12568446 9.15606748 63.90814247 5.75 66.6875 C5.07646484 67.2335791 4.40292969 67.7796582 3.70898438 68.34228516 C0.74835677 70.74434489 -2.19812928 73.15653174 -5.09375 75.63671875 C-5.9703125 76.37535156 -6.846875 77.11398438 -7.75 77.875 C-8.48734375 78.51179688 -9.2246875 79.14859375 -9.984375 79.8046875 C-12 81 -12 81 -13.99609375 80.984375 C-16.78589027 79.61394864 -18.30300369 77.73785356 -20.3125 75.375 C-23.00376011 72.27410455 -25.68516529 69.24183656 -28.625 66.375 C-31.69111464 63.36553413 -34.49785524 60.18562095 -37.28515625 56.91796875 C-38.93606051 55.07151319 -40.67574835 53.42258177 -42.5 51.75 C-43.325 50.8425 -44.15 49.935 -45 49 C-44.57044459 44.4548967 -41.3611107 42.00022786 -38.2421875 38.984375 C-37.37027267 38.12238495 -37.37027267 38.12238495 -36.48074341 37.24298096 C-34.61912782 35.40475039 -32.74769457 33.57693685 -30.875 31.75 C-28.4311089 29.35278709 -25.99152697 26.95125485 -23.5546875 24.546875 C-22.96887405 23.96969727 -22.38306061 23.39251953 -21.77949524 22.79785156 C-18.1593132 19.21069112 -14.71087202 15.53516465 -11.4140625 11.64550781 C-9.2530786 9.13082696 -6.92303753 6.8282014 -4.5625 4.5 C-3.26505859 3.21609375 -3.26505859 3.21609375 -1.94140625 1.90625 C-1.30074219 1.2771875 -0.66007812 0.648125 0 0 Z " fill="#B3B1EB" transform="translate(195,52)"/>
<path d="M0 0 C3.91393929 1.43860566 7.31916926 3.28468332 10.875 5.45703125 C11.71239716 5.96540024 11.71239716 5.96540024 12.56671143 6.48403931 C15.63955734 8.35302916 18.69821177 10.24438345 21.75292969 12.14282227 C23.01722431 12.92651509 24.2818737 13.70963588 25.546875 14.4921875 C26.48923004 15.07555122 26.48923004 15.07555122 27.45062256 15.67070007 C31.39244424 18.08610323 35.39122866 20.28737369 39.515625 22.3828125 C40.97742188 23.16434692 40.97742188 23.16434692 42.46875 23.96166992 C44.26814809 24.91649449 46.09642365 25.81950677 47.953125 26.6574707 C50.390625 27.99609375 50.390625 27.99609375 54 32 C54 37.94 54 43.88 54 50 C28.26 50 2.52 50 -24 50 C-13.65071203 27.00158228 -13.65071203 27.00158228 -8.0625 16 C-7.49982422 14.88367188 -6.93714844 13.76734375 -6.35742188 12.6171875 C-5.3327402 10.58496339 -4.30638983 8.55357886 -3.27758789 6.5234375 C-2.17833508 4.35223989 -1.08603906 2.17782943 0 0 Z " fill="#827FDF" transform="translate(60,141)"/>
<path d="M0 0 C1.43880051 0.00503077 2.87760274 0.00959086 4.31640625 0.01367188 C7.79430751 0.02453936 11.27214217 0.04171472 14.75 0.0625 C14.10010514 3.41405957 12.83266311 5.84837261 11.046875 8.74609375 C10.48540771 9.66277832 9.92394043 10.57946289 9.34545898 11.52392578 C8.43195679 12.99708252 8.43195679 12.99708252 7.5 14.5 C6.87101807 15.52335449 6.24203613 16.54670898 5.59399414 17.60107422 C3.65145062 20.75828521 1.701476 23.91080412 -0.25 27.0625 C-1.37126376 28.87880131 -2.49236649 30.69520204 -3.61328125 32.51171875 C-5.73744178 35.95088179 -7.86690484 39.38668478 -10 42.8203125 C-12.28229982 46.4956502 -14.55112734 50.17893785 -16.8125 53.8671875 C-17.39829834 54.82028809 -17.98409668 55.77338867 -18.58764648 56.75537109 C-19.70696054 58.57700917 -20.82380918 60.4001653 -21.93774414 62.22509766 C-22.44426514 63.04800293 -22.95078613 63.8709082 -23.47265625 64.71875 C-23.91359619 65.43869141 -24.35453613 66.15863281 -24.80883789 66.90039062 C-26.48270439 69.41161571 -28.33781858 71.72933705 -30.25 74.0625 C-32.33550657 69.10209676 -34.41663593 64.13988746 -36.49389648 59.17602539 C-37.19975508 57.49096338 -37.90676473 55.80638303 -38.61499023 54.12231445 C-39.6383581 51.68829997 -40.65744259 49.25252843 -41.67578125 46.81640625 C-41.98840408 46.07540176 -42.30102692 45.33439728 -42.62312317 44.57093811 C-43.52349755 42.41044751 -44.39309139 40.24056987 -45.25 38.0625 C-45.57019104 37.27382034 -45.89038208 36.48514069 -46.22027588 35.67256165 C-48.45353586 29.75276662 -48.45353586 29.75276662 -47.50830078 26.54711914 C-46.99251465 25.90379639 -46.47672852 25.26047363 -45.9453125 24.59765625 C-45.38513428 23.86474365 -44.82495605 23.13183105 -44.24780273 22.37670898 C-43.32076538 21.26211304 -43.32076538 21.26211304 -42.375 20.125 C-41.13786104 18.55583895 -39.90217128 16.9855342 -38.66796875 15.4140625 C-37.76957275 14.29499512 -37.76957275 14.29499512 -36.85302734 13.15332031 C-34.87432774 10.5725126 -33.3005669 7.81981972 -31.6875 5 C-29.8744341 2.45588788 -28.93143408 1.23392032 -25.8605957 0.46142578 C-24.93335693 0.4148584 -24.00611816 0.36829102 -23.05078125 0.3203125 C-21.98545166 0.26447998 -20.92012207 0.20864746 -19.82250977 0.15112305 C-13.2123595 -0.01285458 -6.61128621 -0.0407345 0 0 Z " fill="#B3B1EB" transform="translate(361.25,104.9375)"/>
<path d="M0 0 C0.70382813 0.70511719 1.40765625 1.41023438 2.1328125 2.13671875 C4.03751542 4.04209187 5.94953503 5.93969647 7.8671875 7.83203125 C12.9252644 12.83686524 17.91214099 17.83316743 22.5 23.28125 C23.97579003 25.09962807 23.97579003 25.09962807 26.08300781 26.52246094 C29.00400885 30.29759066 28.39646333 33.73132331 28.171875 38.359375 C28.13009125 39.71594208 28.13009125 39.71594208 28.08746338 41.09991455 C27.99420122 43.9843133 27.87247865 46.86670852 27.75 49.75 C27.68171491 51.70696659 27.61528647 53.66399892 27.55078125 55.62109375 C27.39218499 60.41558067 27.1951416 65.20630421 27 70 C15.45 70 3.9 70 -8 70 C-8.66595315 52.59008185 -7.58648188 36.91332371 -4.5625 19.8125 C-4.31776443 18.42238205 -4.31776443 18.42238205 -4.06808472 17.00418091 C-3.59771021 14.36164429 -3.11717062 11.72131705 -2.62890625 9.08203125 C-2.48091583 8.27912659 -2.33292542 7.47622192 -2.18045044 6.64898682 C-1.12216695 1.12216695 -1.12216695 1.12216695 0 0 Z " fill="#9B98E5" transform="translate(142,121)"/>
<path d="M0 0 C0.96818542 1.58065796 0.96818542 1.58065796 1.80932617 3.64599609 C2.12943161 4.41704681 2.44953705 5.18809753 2.77934265 5.98251343 C3.11383926 6.82101837 3.44833588 7.65952332 3.79296875 8.5234375 C4.14386063 9.38055328 4.4947525 10.23766907 4.85627747 11.12075806 C5.59684575 12.93612308 6.33202922 14.75369263 7.06225586 16.57324219 C8.18202366 19.36136441 9.31899592 22.14196796 10.45898438 24.921875 C11.17550698 26.68447836 11.89103524 28.44748633 12.60546875 30.2109375 C13.11632271 31.46262222 13.11632271 31.46262222 13.63749695 32.73959351 C13.9481459 33.51694855 14.25879486 34.29430359 14.57885742 35.09521484 C14.85404709 35.77836761 15.12923676 36.46152039 15.4127655 37.16537476 C16 39 16 39 16 42 C-6.44 42 -28.88 42 -52 42 C-51.67 38.7 -51.34 35.4 -51 32 C-50.89429688 30.61425781 -50.78859375 29.22851562 -50.6796875 27.80078125 C-49.58932042 23.84149752 -47.27874913 22.56882391 -43.8203125 20.54296875 C-41.60241998 19.39720578 -39.36954174 18.28013552 -37.125 17.1875 C-35.35672344 16.28663826 -33.58845702 15.38575162 -31.82185364 14.48161316 C-30.62888149 13.87314062 -29.43403014 13.26833873 -28.23735046 12.66719055 C-21.71080675 9.38630413 -15.37745306 5.77109834 -9.05712891 2.11206055 C-8.29706543 1.68449463 -7.53700195 1.25692871 -6.75390625 0.81640625 C-6.09720947 0.43943604 -5.4405127 0.06246582 -4.76391602 -0.32592773 C-3 -1 -3 -1 0 0 Z " fill="#9B98E6" transform="translate(298,149)"/>
<path d="M0 0 C1.2686792 0.65053345 1.2686792 0.65053345 2.56298828 1.31420898 C3.34867188 1.71075684 4.13435547 2.10730469 4.94384766 2.51586914 C5.75660156 2.95721191 6.56935547 3.39855469 7.40673828 3.85327148 C8.31794434 4.34794922 9.22915039 4.84262695 10.16796875 5.35229492 C11.1233252 5.87597656 12.07868164 6.3996582 13.06298828 6.93920898 C14.52889404 7.7402002 14.52889404 7.7402002 16.02441406 8.55737305 C23.35209644 12.58778012 30.52388793 16.7985597 37.56298828 21.31420898 C34.3341076 23.89505865 30.94212489 25.81318864 27.29345703 27.74780273 C26.3946154 28.22661644 26.3946154 28.22661644 25.47761536 28.71510315 C23.57024622 29.73049102 21.66050788 30.74131706 19.75048828 31.75170898 C17.85553913 32.7572464 15.96111468 33.76375153 14.06741333 34.77163696 C12.85116518 35.41813196 11.63378961 36.06251078 10.41525269 36.7046814 C7.40604152 38.29711694 4.48800392 39.96408213 1.61376953 41.78686523 C-3.20332729 44.19849758 -7.12319406 43.66113804 -12.26098633 42.30444336 C-13.62408156 41.84971438 -14.98346354 41.38373639 -16.33935547 40.90795898 C-17.42320274 40.54172424 -17.42320274 40.54172424 -18.52894592 40.16809082 C-20.81430862 39.3933423 -23.09433274 38.60406703 -25.37451172 37.81420898 C-26.93212363 37.28328959 -28.49006369 36.75333187 -30.04833984 36.22436523 C-33.84844852 34.93206865 -37.64384283 33.62672856 -41.43701172 32.31420898 C-40.12011634 28.36352285 -37.58326461 26.85161956 -34.37451172 24.43920898 C-33.09870156 23.4601337 -31.82400668 22.47960381 -30.55029297 21.49780273 C-29.87949707 20.9820166 -29.20870117 20.46623047 -28.51757812 19.93481445 C-24.32395797 16.66829831 -20.22740562 13.28074629 -16.12036133 9.90649414 C-14.86982716 8.88369612 -13.61379571 7.86757827 -12.35205078 6.85864258 C-11.00194177 5.76981167 -9.67216952 4.65552501 -8.35791016 3.52368164 C-7.66987305 2.95568848 -6.98183594 2.38769531 -6.27294922 1.80249023 C-5.65726074 1.27824463 -5.04157227 0.75399902 -4.40722656 0.21386719 C-2.43701172 -0.68579102 -2.43701172 -0.68579102 0 0 Z " fill="#827FDE" transform="translate(243.43701171875,111.685791015625)"/>
<path d="M0 0 C3.16788176 0.42550649 4.80654345 1.43572359 7.02441406 3.68383789 C7.86483246 4.52459618 7.86483246 4.52459618 8.722229 5.38233948 C9.31404968 5.98964401 9.90587036 6.59694855 10.515625 7.22265625 C11.13145447 7.84273056 11.74728394 8.46280487 12.3817749 9.10166931 C14.34500635 11.08167905 16.29754436 13.07186919 18.25 15.0625 C19.58003748 16.40758535 20.91075879 17.75199488 22.2421875 19.09570312 C25.50277537 22.38934906 28.75381188 25.69216339 32 29 C29.83577721 33.5549858 26.96235204 37.51486489 24.0625 41.625 C23.52431641 42.40101562 22.98613281 43.17703125 22.43164062 43.9765625 C21.90892578 44.7190625 21.38621094 45.4615625 20.84765625 46.2265625 C20.37336182 46.90283691 19.89906738 47.57911133 19.41040039 48.27587891 C18 50 18 50 15 52 C1.16948782 44.59834441 -12.55884764 37.09025883 -26 29 C-22.02665961 23.21765911 -17.47989508 18.36278526 -12.46875 13.46484375 C-9.65482371 10.65536987 -7.04613287 7.72014163 -4.47265625 4.69140625 C-3.98667969 4.13324219 -3.50070312 3.57507813 -3 3 C-2.52433594 2.41089844 -2.04867188 1.82179688 -1.55859375 1.21484375 C-0.78708984 0.61349609 -0.78708984 0.61349609 0 0 Z " fill="#9A98E5" transform="translate(283,68)"/>
<path d="M0 0 C11.90716661 2.38143332 25.28064687 6.45457384 35 14 C40.06472243 21.80920234 40.11255637 29.7804467 41 39 C27.47 39 13.94 39 0 39 C0 26.13 0 13.26 0 0 Z " fill="#8380E0" transform="translate(438,152)"/>
<path d="M0 0 C0 11.88 0 23.76 0 36 C-17.82 36 -35.64 36 -54 36 C-51.08620421 33.08620421 -48.90897386 31.11377408 -45.5703125 28.93139648 C-44.7026123 28.36077988 -43.83491211 27.79016327 -42.94091797 27.20225525 C-42.01166504 26.59797195 -41.08241211 25.99368866 -40.125 25.37109375 C-39.16352051 24.74018326 -38.20204102 24.10927277 -37.21142578 23.45924377 C-34.14388336 21.44747604 -31.07214377 19.44223251 -28 17.4375 C-24.92865736 15.42800148 -21.85820626 13.4171551 -18.78857422 11.40504456 C-16.8799149 10.15450605 -14.97012454 8.90569174 -13.05908203 7.65879822 C-12.19138184 7.09133377 -11.32368164 6.52386932 -10.4296875 5.93920898 C-9.66897949 5.44275375 -8.90827148 4.94629852 -8.12451172 4.43479919 C-6.6624781 3.44740777 -5.23759215 2.40346062 -3.84814453 1.31629944 C-2 0 -2 0 0 0 Z " fill="#827FDF" transform="translate(418,155)"/>
<path d="M0 0 C5.78500918 1.2855576 11.08473221 2.56321804 16.66015625 4.3828125 C17.67317055 4.71150833 17.67317055 4.71150833 18.70664978 5.04684448 C20.82655774 5.7356712 22.94453869 6.43021393 25.0625 7.125 C26.51484938 7.5980389 27.96732244 8.07069826 29.41992188 8.54296875 C32.94805125 9.69094007 36.47447902 10.84403928 40 12 C39.52450066 14.62571335 39.04477433 17.2505304 38.5625 19.875 C38.42779297 20.62136719 38.29308594 21.36773437 38.15429688 22.13671875 C37.11328125 27.7734375 37.11328125 27.7734375 36 30 C24.12 30 12.24 30 0 30 C0 20.1 0 10.2 0 0 Z " fill="#827FDF" transform="translate(189,161)"/>
<path d="M0 0 C0.66 0 1.32 0 2 0 C4.60486934 2.89504691 6.82405141 6.11068598 9.125 9.25 C9.78371094 10.12269531 10.44242187 10.99539062 11.12109375 11.89453125 C11.74371094 12.73886719 12.36632812 13.58320312 13.0078125 14.453125 C13.58160645 15.22817383 14.15540039 16.00322266 14.74658203 16.80175781 C16 19 16 19 16 23 C14.35650635 24.56178284 14.35650635 24.56178284 12.02441406 26.06860352 C10.72241058 26.92452843 10.72241058 26.92452843 9.394104 27.79774475 C8.44420593 28.40202805 7.49430786 29.00631134 6.515625 29.62890625 C5.54848572 30.25981674 4.58134644 30.89072723 3.5848999 31.54075623 C0.48162891 33.56123898 -2.63371722 35.56215741 -5.75 37.5625 C-8.84908561 39.57065943 -11.94565682 41.58265281 -15.04205322 43.59495544 C-16.9719655 44.84706445 -18.90398735 46.09592919 -20.83831787 47.34120178 C-21.71892883 47.90866623 -22.59953979 48.47613068 -23.50683594 49.06079102 C-24.66599518 49.80547386 -24.66599518 49.80547386 -25.84857178 50.56520081 C-27.95950851 51.97299601 -29.98576707 53.45778922 -32 55 C-32.66 54.67 -33.32 54.34 -34 54 C-33.5359375 53.29101562 -33.071875 52.58203125 -32.59375 51.8515625 C-27.63330815 44.2072995 -22.81580164 36.48304549 -18.05181885 28.71472168 C-7.59572248 11.66873019 -7.59572248 11.66873019 -3.625 5.375 C-2.95726562 4.31023437 -2.28953125 3.24546875 -1.6015625 2.1484375 C-1.07304687 1.43945312 -0.54453125 0.73046875 0 0 Z " fill="#9996E2" transform="translate(396,112)"/>
<path d="M0 0 C0.2568963 6.04120646 -0.72429202 11.53098224 -1.9375 17.4375 C-3.18572451 23.61687291 -4.30356837 29.73211535 -5 36 C-10.10141985 34.56154109 -14.04447784 32.29144808 -18.4375 29.4375 C-19.84166983 28.54174786 -21.24663928 27.64724815 -22.65234375 26.75390625 C-23.36632324 26.29902832 -24.08030273 25.84415039 -24.81591797 25.37548828 C-28.3442116 23.15344421 -31.919493 21.01155208 -35.5 18.875 C-36.15282959 18.48497803 -36.80565918 18.09495605 -37.47827148 17.69311523 C-38.98474816 16.79412502 -40.49224925 15.89685174 -42 15 C-40.28329684 11.56659368 -36.16607138 11.12561853 -32.6953125 9.9609375 C-31.86039276 9.67521881 -31.02547302 9.38950012 -30.16525269 9.09512329 C-28.39604267 8.491509 -26.62558435 7.89154321 -24.85400391 7.29492188 C-22.14037007 6.38018111 -19.43132264 5.45277074 -16.72265625 4.5234375 C-15.00546662 3.93934427 -13.28802664 3.35598642 -11.5703125 2.7734375 C-10.7577298 2.49535248 -9.94514709 2.21726746 -9.10794067 1.93075562 C-5.96671954 0.87800105 -3.33654254 0 0 0 Z " fill="#B0AEE8" transform="translate(122,115)"/>
<path d="M0 0 C5.32898284 0.63259178 10.61086244 1.3966302 15.89453125 2.33984375 C16.60856613 2.46686172 17.32260101 2.5938797 18.05827332 2.7247467 C19.55168224 2.99162368 21.04487053 3.25973814 22.5378418 3.52905273 C24.82293652 3.93937403 27.10963745 4.3398099 29.39648438 4.74023438 C30.85427591 5.00199648 32.31196225 5.26434533 33.76953125 5.52734375 C34.45078568 5.6451268 35.1320401 5.76290985 35.8339386 5.88426208 C39.16060182 6.49622453 41.13573681 7.09049121 44 9 C43.57589844 9.4125 43.15179688 9.825 42.71484375 10.25 C39.51462825 13.40098142 36.43163447 16.59637902 33.5 20 C30.17841283 23.85635518 26.64719707 27.45257428 23 31 C19.08260072 29.50191764 17.64440134 27.37362977 15.4375 23.875 C14.75558594 22.81410156 14.07367188 21.75320312 13.37109375 20.66015625 C12.99839355 20.0789502 12.62569336 19.49774414 12.24169922 18.89892578 C9.42530095 14.59181888 6.44891844 10.39036409 3.50561523 6.16943359 C0 1.10721361 0 1.10721361 0 0 Z " fill="#B1AFE9" transform="translate(220,51)"/>
<path d="M0 0 C4.21991975 0.32138462 6.62477605 0.71843517 10.171875 3.1796875 C12.62942904 6.82638059 12.72695581 8.73162183 12.109375 13.0546875 C10.75690611 16.25790328 9.82378782 17.64920996 6.796875 19.3671875 C3.62182807 20.17940881 1.37132147 20.53038803 -1.890625 20.0546875 C-4.703125 17.6171875 -4.703125 17.6171875 -6.890625 15.0546875 C-7.220625 14.7246875 -7.550625 14.3946875 -7.890625 14.0546875 C-8.18385366 11.12240087 -8.39066747 8.90976867 -7.890625 6.0546875 C-5.453125 3.1171875 -5.453125 3.1171875 -2.890625 1.0546875 C-1.890625 0.0546875 -1.890625 0.0546875 0 0 Z " fill="#040506" transform="translate(399.890625,415.9453125)"/>
<path d="M0 0 C3.67123639 0.01977327 4.15668193 0.29756585 7.1875 2.8125 C8.2084375 4.0809375 8.2084375 4.0809375 9.25 5.375 C9.58 5.705 9.91 6.035 10.25 6.375 C10.29249593 10.56509901 9.92028061 14.25786566 7.75 17.875 C4.05594935 20.09143039 0.54934672 20.85015062 -3.75 20.375 C-6.55665387 18.21153764 -8.174034 16.52693199 -9.75 13.375 C-10.125 10.0625 -10.125 10.0625 -9.75 6.375 C-7.3125 3.5 -7.3125 3.5 -4.75 1.375 C-3.75 0.375 -3.75 0.375 0 0 Z " fill="#040506" transform="translate(109.75,415.625)"/>
<path d="M0 0 C3.49406769 1.66762322 4.82670681 2.74006022 7 6 C7.45971784 10.96495273 7.15065843 14.06167696 4 18 C0.78446554 20.32849047 -2.11021377 20.54457007 -6 20 C-8.92483867 18.17452064 -11.43429205 16.13141589 -13 13 C-13.40417552 10.03604618 -13.56382171 7.91095074 -11.953125 5.30859375 C-8.12285003 0.63340518 -5.98728971 -0.46959135 0 0 Z " fill="#060401" transform="translate(147,276)"/>
</svg>
